<?xml version="1.0" encoding="utf-8"?>
<!-- Generator: Adobe Illustrator 26.0.1, SVG Export Plug-In . SVG Version: 6.00 Build 0)  -->
<svg version="1.1" id="Layer_1" xmlns="http://www.w3.org/2000/svg" xmlns:xlink="http://www.w3.org/1999/xlink" x="0px" y="0px"
	 viewBox="0 0 372.2 369.72" style="enable-background:new 0 0 372.2 369.72;" xml:space="preserve">
<style type="text/css">
	.st0{fill:#F4D697;}
	.st1{fill:#E8CB90;}
</style>
<g>
	<g>
		<path class="st0" d="M317.74,62.87c-11.57-8.55-24.68-14.49-35.71-23.88c-11.03-9.39-20.12-23.7-18.75-39h-77.19v366.87h69.59
			c32.14-1.15,62.27-21.34,81.96-49.41c19.69-28.06,29.73-63.25,33.2-98.53c2.86-29.05,1.44-58.93-6.97-86.64
			C355.48,104.58,339.74,79.13,317.74,62.87z"/>
		<path class="st0" d="M54.45,62.87C66.02,54.33,79.13,48.39,90.16,39c11.03-9.39,20.12-23.7,18.75-39h77.19v366.87h-69.59
			c-32.14-1.15-62.27-21.34-81.96-49.41c-19.69-28.06-29.73-63.25-33.2-98.53c-2.86-29.05-1.44-58.93,6.97-86.64
			C16.71,104.58,32.45,79.13,54.45,62.87z"/>
		<path class="st1" d="M292.43,286.36c-22.62,19.2-58.3,38.8-106.32,43.18c0,0,0,0-0.01,0c-5.48,0.5-11.12,0.81-16.93,0.89
			c-36.04,0.49-69.3-7.92-97.51-17.39c-18.14-6.08-35.2-12.74-51.03-19.88c3.98,8.52,8.59,16.68,13.94,24.29
			c19.69,28.06,49.82,48.26,81.96,49.41h69.59h0.01h69.59c32.14-1.15,62.27-21.34,81.96-49.41c19.69-28.06,29.73-63.25,33.21-98.53
			c2.29-23.34,1.82-47.21-2.81-70.06C361.15,196.7,342.62,243.76,292.43,286.36z"/>
	</g>
</g>
</svg>
