<?xml version="1.0" encoding="utf-8"?>
<!-- Generator: Adobe Illustrator 26.0.1, SVG Export Plug-In . SVG Version: 6.00 Build 0)  -->
<svg version="1.1" id="Layer_1" xmlns="http://www.w3.org/2000/svg" xmlns:xlink="http://www.w3.org/1999/xlink" x="0px" y="0px"
	 viewBox="0 0 443.26 374.94" style="enable-background:new 0 0 443.26 374.94;" xml:space="preserve">
<style type="text/css">
	.st0{fill:#EBE4CD;}
	.st1{fill:#DED9C3;}
	.st2{fill:#EDD289;}
</style>
<g>
	<g>
		<path class="st0" d="M402.13,259.73c28.27-97.18,27.82-149.31,27.16-250.52H219.51v365.73h90.5
			C353.47,329.18,384.38,320.77,402.13,259.73z"/>
		<path class="st0" d="M36.9,259.73C8.64,162.55,9.08,110.42,9.75,9.21h209.78v365.73h-90.5C85.57,329.18,54.66,320.77,36.9,259.73z
			"/>
		<path class="st1" d="M129.03,374.94h90.5h0h90.49c43.45-45.76,74.36-54.17,92.12-115.22c21.44-73.69,26.36-121.49,27.19-184.4
			c-6.61,57.05-26.79,113.47-89.02,164.19c-25.82,21.05-66.35,42.53-120.78,47.78c0,0,0,0,0,0c-7.05,0.68-14.32,1.1-21.83,1.2
			c-41.7,0.54-80.19-8.8-112.83-19.32c-17.78-5.73-34.66-11.91-50.53-18.49c0.83,2.97,1.69,5.99,2.58,9.04
			C54.68,320.77,85.59,329.18,129.03,374.94z"/>
	</g>
	<rect class="st2" width="443.26" height="20.47"/>
</g>
</svg>
