<?xml version="1.0" encoding="utf-8"?>
<!-- Generator: Adobe Illustrator 26.0.1, SVG Export Plug-In . SVG Version: 6.00 Build 0)  -->
<svg version="1.1" id="Layer_1" xmlns="http://www.w3.org/2000/svg" xmlns:xlink="http://www.w3.org/1999/xlink" x="0px" y="0px"
	 viewBox="0 0 333.63 217.23" style="enable-background:new 0 0 333.63 217.23;" xml:space="preserve">
<style type="text/css">
	.st0{fill:#C6DFDB;}
	.st1{fill:#BAD2CF;}
</style>
<g>
	<g>
		<path class="st0" d="M166.94,6.66v210.57h50.74c67.23-17.49,115.94-69,115.94-129.82c0-30.23-12.04-58.15-32.39-80.75H166.94z"/>
		<path class="st0" d="M166.94,6.66v210.57H116.2C48.97,199.74,0.25,148.23,0.25,87.41c0-30.23,12.04-58.15,32.39-80.75H166.94z"/>
		<path class="st1" d="M116.21,217.23h50.74h0h50.74c67.23-17.49,115.94-69,115.94-129.82c0-21.26-5.96-41.37-16.56-59.29
			c-5.09,39.94-19.91,79.36-63.5,114.89c-18.52,15.09-47.58,30.51-86.62,34.27h0c-5.06,0.49-10.27,0.79-15.66,0.86
			c-29.9,0.39-57.51-6.31-80.92-13.85c-20.47-6.59-39.27-14.03-56.11-22.13C33.37,177.73,70.5,205.34,116.21,217.23z"/>
	</g>
	<rect x="25.48" y="0.89" class="st1" width="278.39" height="8.78"/>
</g>
</svg>
