<?xml version="1.0" encoding="utf-8"?>
<!-- Generator: Adobe Illustrator 26.0.1, SVG Export Plug-In . SVG Version: 6.00 Build 0)  -->
<svg version="1.1" id="Layer_1" xmlns="http://www.w3.org/2000/svg" xmlns:xlink="http://www.w3.org/1999/xlink" x="0px" y="0px"
	 viewBox="0 0 418.87 312.57" style="enable-background:new 0 0 418.87 312.57;" xml:space="preserve">
<style type="text/css">
	.st0{fill:#EA9656;}
	.st1{fill:#DC8D50;}
</style>
<g>
	<path class="st0" d="M212.3-2.72v315.29h79c44.62-23.52,82.56-69.41,104.78-126.74c22.22-57.33,28.54-125.61,17.44-188.56H212.3z"
		/>
	<path class="st0" d="M212.3-2.72v315.29H133.3c-44.62-23.52-82.56-69.41-104.78-126.74C6.3,128.51-0.01,60.23,11.09-2.72H212.3z"/>
	<path class="st1" d="M212.32,241.64C212.31,241.64,212.31,241.64,212.32,241.64c-5.2,0.29-10.49,0.48-15.91,0.54
		c-45.48,0.49-87.47-7.84-123.07-17.21c-10.64-2.8-20.98-5.72-31.01-8.75c22.61,43.05,54.57,77.15,90.98,96.35h79h0.01h79
		c44.62-23.52,82.56-69.41,104.78-126.74c4.54-11.7,8.4-23.87,11.6-36.35c-13.85,16.85-31.97,33.27-55.71,49.08
		C322.58,218.13,275.69,238.12,212.32,241.64z"/>
</g>
</svg>
