<?xml version="1.0" encoding="utf-8"?>
<!-- Generator: Adobe Illustrator 26.0.1, SVG Export Plug-In . SVG Version: 6.00 Build 0)  -->
<svg version="1.1" id="Layer_1" xmlns="http://www.w3.org/2000/svg" xmlns:xlink="http://www.w3.org/1999/xlink" x="0px" y="0px"
	 viewBox="0 0 490.86 536.07" style="enable-background:new 0 0 490.86 536.07;" xml:space="preserve">
<style type="text/css">
	.st0{fill:#F1D4AF;}
	.st1{fill:#E4C9A5;}
	.st2{fill:#B7926A;}
</style>
<g>
	<g>
		<path class="st0" d="M452.33,348.71c31.91-109.7,31.41-225.84,30.65-340.09h-236.8v527.46h102.16
			C397.39,484.41,432.29,417.63,452.33,348.71z"/>
		<path class="st0" d="M40.04,348.71C8.13,239.01,8.63,122.87,9.38,8.62h236.8v527.46H144.02
			C94.98,484.41,60.08,417.63,40.04,348.71z"/>
		<path class="st1" d="M144.04,536.07H246.2h0.01h102.15c49.05-51.66,83.94-118.45,103.99-187.36
			c17.96-61.74,25.66-125.53,28.81-189.87c-9.15,59.59-33.47,118.2-98.6,171.28c-29.15,23.76-74.9,48.02-136.35,53.94
			c0,0,0,0-0.01,0c-7.96,0.77-16.16,1.24-24.64,1.35c-47.08,0.62-90.52-9.94-127.38-21.81c-19.55-6.3-38.13-13.09-55.65-20.3
			c0.5,1.8,1,3.61,1.52,5.4C60.1,417.63,95,484.41,144.04,536.07z"/>
	</g>
	<rect x="0.25" y="-0.31" class="st2" width="490.61" height="25.68"/>
</g>
</svg>
