<?xml version="1.0" encoding="utf-8"?>
<!-- Generator: Adobe Illustrator 26.0.1, SVG Export Plug-In . SVG Version: 6.00 Build 0)  -->
<svg version="1.1" id="Layer_1" xmlns="http://www.w3.org/2000/svg" xmlns:xlink="http://www.w3.org/1999/xlink" x="0px" y="0px"
	 viewBox="0 0 387.03 318.88" style="enable-background:new 0 0 387.03 318.88;" xml:space="preserve">
<style type="text/css">
	.st0{fill:#775039;}
	.st1{fill:#DE8C78;}
	.st2{fill:#6B4732;}
</style>
<g>
	<g>
		<g>
			<polygon class="st0" points="295.97,312.19 379.03,45.69 194.93,45.69 194.24,45.69 194.24,312.19 194.93,312.19 			"/>
			<rect x="194.24" y="0.89" class="st1" width="192.79" height="44.8"/>
		</g>
		<g>
			<polygon class="st0" points="92.51,312.19 9.46,45.69 193.56,45.69 194.24,45.69 194.24,312.19 193.56,312.19 			"/>
			<rect x="1.46" y="0.89" class="st1" width="192.79" height="44.8"/>
		</g>
		<path class="st2" d="M193.57,312.19h0.68h0h0.68h101.05l83.05-266.5h-20.12c-3.38,53-17.15,106-74.87,153.05
			c-19.7,16.06-49.81,32.43-89.79,38.18c0,0,0,0,0,0c-8.74,1.25-17.94,2.01-27.62,2.14c-34.33,0.45-66.02-7.24-92.89-15.9
			c-3.38-1.09-6.71-2.19-10-3.32l28.78,92.36H193.57z"/>
	</g>
	<rect x="83.91" y="303.27" class="st0" width="220.7" height="15.6"/>
</g>
</svg>
