<?xml version="1.0" encoding="utf-8"?>
<!-- Generator: Adobe Illustrator 26.0.1, SVG Export Plug-In . SVG Version: 6.00 Build 0)  -->
<svg version="1.1" id="Layer_1" xmlns="http://www.w3.org/2000/svg" xmlns:xlink="http://www.w3.org/1999/xlink" x="0px" y="0px"
	 viewBox="0 0 165 120.59" style="enable-background:new 0 0 165 120.59;" xml:space="preserve">
<style type="text/css">
	.st0{fill:#0A0606;}
	.st1{fill:#FFFFFF;}
</style>
<g>
	<circle class="st0" cx="32" cy="55.99" r="32"/>
	<circle class="st1" cx="37.5" cy="42.69" r="13.3"/>
	<circle class="st1" cx="22.8" cy="66.69" r="4.6"/>
	<circle class="st0" cx="133" cy="55.99" r="32"/>
	<circle class="st1" cx="127.5" cy="42.69" r="13.3"/>
	<circle class="st1" cx="142.3" cy="66.69" r="4.6"/>
	<path class="st0" d="M66.7,38.29c-0.1,0-0.3,0-0.4,0c-1.9-0.2-45.8-5.8-63.3-32.8c-1.1-1.6-0.6-3.8,1-4.8c1.6-1.1,3.8-0.6,4.8,1
		c15.8,24.2,57.9,29.6,58.3,29.7c1.9,0.2,3.3,2,3.1,3.9C70,36.99,68.5,38.29,66.7,38.29z"/>
	<path class="st0" d="M98.7,38.29c-1.7,0-3.3-1.3-3.5-3.1c-0.2-1.9,1.1-3.7,3.1-3.9c0.4-0.1,42.5-5.5,58.3-29.7
		c1.1-1.6,3.2-2.1,4.8-1s2.1,3.2,1,4.8c-17.6,27-61.5,32.6-63.3,32.8C99,38.29,98.8,38.29,98.7,38.29z"/>
	<path class="st0" d="M49.8,120.59c-1.3,0-2.5-0.7-3.1-1.9c-0.9-1.7-0.2-3.8,1.5-4.7l7.5-3.9c0.5-0.3,1-0.4,1.6-0.4H114
		c0.6,0,1.2,0.1,1.7,0.4l7.2,3.9c1.7,0.9,2.3,3,1.4,4.7c-0.9,1.7-3,2.3-4.7,1.4l-6.4-3.4h-55l-6.7,3.5
		C50.9,120.49,50.3,120.59,49.8,120.59z"/>
</g>
</svg>
