<?xml version="1.0" encoding="utf-8"?>
<!-- Generator: Adobe Illustrator 26.0.1, SVG Export Plug-In . SVG Version: 6.00 Build 0)  -->
<svg version="1.1" id="Layer_1" xmlns="http://www.w3.org/2000/svg" xmlns:xlink="http://www.w3.org/1999/xlink" x="0px" y="0px"
	 viewBox="0 0 165.63 131.6" style="enable-background:new 0 0 165.63 131.6;" xml:space="preserve">
<style type="text/css">
	.st0{fill:#0A0606;}
	.st1{fill:#FFFFFF;}
</style>
<g>
	<circle class="st0" cx="32.32" cy="74.5" r="32"/>
	<path class="st0" d="M61.52,33.6c-0.9,0-1.7-0.3-2.4-0.9c-7.3-6.8-16.8-10.6-26.8-10.6c-9.8,0-19.2,3.7-26.5,10.3
		c-1.4,1.3-3.6,1.2-4.9-0.2c-1.3-1.4-1.2-3.6,0.2-4.9c8.5-7.8,19.6-12.2,31.2-12.2c11.8,0,23,4.4,31.6,12.5c1.4,1.3,1.5,3.5,0.2,4.9
		C63.42,33.3,62.42,33.6,61.52,33.6z"/>
	<circle class="st1" cx="37.82" cy="61.2" r="13.3"/>
	<circle class="st1" cx="23.12" cy="85.2" r="4.6"/>
	<circle class="st0" cx="133.32" cy="74.5" r="32"/>
	<path class="st0" d="M104.12,18.5c-0.9,0-1.9-0.4-2.6-1.1c-1.3-1.4-1.3-3.6,0.2-4.9c8.6-8.1,19.8-12.5,31.6-12.5
		c11.6,0,22.7,4.3,31.2,12.2c1.4,1.3,1.5,3.5,0.2,4.9s-3.5,1.5-4.9,0.2c-7.2-6.6-16.6-10.3-26.5-10.3c-10,0-19.5,3.8-26.8,10.6
		C105.82,18.2,105.02,18.5,104.12,18.5z"/>
	<circle class="st1" cx="127.82" cy="61.2" r="13.3"/>
	<circle class="st1" cx="142.62" cy="85.2" r="4.6"/>
	<path class="st0" d="M80.52,129.9c6.1,0,11.7,0.6,16.4,1.7c0-0.3,0.1-0.6,0.1-0.9c0-5.9-7.4-10.7-16.5-10.7s-16.5,4.8-16.5,10.7
		c0,0.3,0,0.6,0.1,0.9C68.82,130.5,74.52,129.9,80.52,129.9z"/>
</g>
</svg>
