<?xml version="1.0" encoding="utf-8"?>
<!-- Generator: Adobe Illustrator 26.0.1, SVG Export Plug-In . SVG Version: 6.00 Build 0)  -->
<svg version="1.1" id="Layer_1" xmlns="http://www.w3.org/2000/svg" xmlns:xlink="http://www.w3.org/1999/xlink" x="0px" y="0px"
	 viewBox="0 0 165.63 141.04" style="enable-background:new 0 0 165.63 141.04;" xml:space="preserve">
<style type="text/css">
	.st0{fill:#0A0606;}
	.st1{fill:#FFFFFF;}
</style>
<g>
	<circle class="st0" cx="32.32" cy="65.34" r="32"/>
	<path class="st0" d="M61.52,24.44c-0.9,0-1.7-0.3-2.4-0.9c-7.3-6.8-16.8-10.6-26.8-10.6c-9.8,0-19.2,3.7-26.5,10.3
		c-1.4,1.3-3.6,1.2-4.9-0.2c-1.3-1.4-1.2-3.6,0.2-4.9c8.5-7.8,19.6-12.2,31.2-12.2c11.8,0,23,4.4,31.6,12.5c1.4,1.3,1.5,3.5,0.2,4.9
		C63.32,24.04,62.42,24.44,61.52,24.44z"/>
	<circle class="st1" cx="37.82" cy="52.04" r="13.3"/>
	<circle class="st1" cx="23.02" cy="76.04" r="4.6"/>
	<circle class="st0" cx="133.32" cy="65.34" r="32"/>
	<path class="st0" d="M104.12,24.44c-0.9,0-1.9-0.4-2.6-1.1c-1.3-1.4-1.3-3.6,0.2-4.9c8.6-8.1,19.8-12.5,31.6-12.5
		c11.6,0,22.7,4.3,31.2,12.2c1.4,1.3,1.5,3.5,0.2,4.9s-3.5,1.5-4.9,0.2c-7.2-6.6-16.6-10.3-26.5-10.3c-10,0-19.5,3.8-26.8,10.6
		C105.82,24.14,104.92,24.44,104.12,24.44z"/>
	<circle class="st1" cx="127.82" cy="52.04" r="13.3"/>
	<circle class="st1" cx="142.52" cy="76.04" r="4.6"/>
</g>
<path class="st0" d="M82.82,141.04c-10.3,0-19.7-5.2-25.2-13.9c-1-1.6-0.5-3.8,1.1-4.8s3.8-0.5,4.8,1.1c4.2,6.6,11.4,10.6,19.2,10.6
	s15-3.9,19.2-10.6c1-1.6,3.2-2.1,4.8-1.1c1.6,1,2.1,3.2,1.1,4.8C102.42,135.94,93.02,141.04,82.82,141.04z"/>
</svg>
