<?xml version="1.0" encoding="utf-8"?>
<!-- Generator: Adobe Illustrator 26.0.1, SVG Export Plug-In . SVG Version: 6.00 Build 0)  -->
<svg version="1.1" id="Layer_1" xmlns="http://www.w3.org/2000/svg" xmlns:xlink="http://www.w3.org/1999/xlink" x="0px" y="0px"
	 viewBox="0 0 165.63 120.7" style="enable-background:new 0 0 165.63 120.7;" xml:space="preserve">
<style type="text/css">
	.st0{fill:#0A0606;}
	.st1{fill:#FFFFFF;}
</style>
<circle class="st0" cx="32.32" cy="59.4" r="32"/>
<path class="st0" d="M61.52,18.5c-0.9,0-1.7-0.3-2.4-0.9C51.82,10.8,42.32,7,32.32,7c-9.8,0-19.2,3.7-26.5,10.3
	c-1.4,1.3-3.6,1.2-4.9-0.2c-1.3-1.4-1.2-3.6,0.2-4.9C9.62,4.4,20.72,0,32.32,0c11.8,0,23,4.4,31.6,12.5c1.4,1.3,1.5,3.5,0.2,4.9
	C63.32,18.2,62.42,18.5,61.52,18.5z"/>
<circle class="st1" cx="37.82" cy="46.1" r="13.3"/>
<circle class="st1" cx="23.02" cy="70.1" r="4.6"/>
<circle class="st0" cx="133.32" cy="59.4" r="32"/>
<path class="st0" d="M104.12,18.5c-0.9,0-1.9-0.4-2.6-1.1c-1.3-1.4-1.3-3.6,0.2-4.9c8.6-8.1,19.8-12.5,31.6-12.5
	c11.6,0,22.7,4.3,31.2,12.2c1.4,1.3,1.5,3.5,0.2,4.9s-3.5,1.5-4.9,0.2c-7.2-6.6-16.6-10.3-26.5-10.3c-10,0-19.5,3.8-26.8,10.6
	C105.82,18.2,105.02,18.5,104.12,18.5z"/>
<circle class="st1" cx="127.82" cy="46.1" r="13.3"/>
<circle class="st1" cx="142.52" cy="70.1" r="4.6"/>
<path class="st0" d="M105.02,93.1c-4.7,16.6-12.8,27.6-22.2,27.6c-9.3,0-17.6-11.1-22.2-27.7L105.02,93.1z"/>
<path class="st1" d="M63.92,102.5h37.8c1.2-2.9,2.3-6,3.3-9.4L60.62,93C61.62,96.4,62.72,99.6,63.92,102.5z"/>
<path class="st1" d="M66.02,106.8c4.6,8.7,10.4,13.9,16.8,13.9s12.3-5.2,16.9-13.9H66.02z"/>
</svg>
