<?xml version="1.0" encoding="utf-8"?>
<!-- Generator: Adobe Illustrator 26.0.1, SVG Export Plug-In . SVG Version: 6.00 Build 0)  -->
<svg version="1.1" id="Layer_1" xmlns="http://www.w3.org/2000/svg" xmlns:xlink="http://www.w3.org/1999/xlink" x="0px" y="0px"
	 viewBox="0 0 179.39 122.4" style="enable-background:new 0 0 179.39 122.4;" xml:space="preserve">
<style type="text/css">
	.st0{fill:#0A0606;}
</style>
<g>
	<g>
		<path class="st0" d="M68.49,24.3c-1.1,0-2.2-0.5-2.9-1.5C58.29,12.6,48.99,7,39.29,7c-9.6,0-18.8,5.5-26,15.4
			c-1.1,1.6-3.3,1.9-4.9,0.8c-1.6-1.1-1.9-3.3-0.8-4.9C16.19,6.5,27.39,0,39.29,0c12.1,0,23.4,6.7,32,18.8c1.1,1.6,0.8,3.8-0.8,4.9
			C69.89,24.1,69.19,24.3,68.49,24.3z"/>
		<path class="st0" d="M111.09,24.3c-0.7,0-1.4-0.2-2-0.6c-1.6-1.1-1.9-3.3-0.8-4.9c8.6-12.1,20-18.8,32-18.8
			c11.9,0,23.1,6.5,31.7,18.3c1.1,1.6,0.8,3.8-0.8,4.9c-1.6,1.1-3.8,0.8-4.9-0.8c-7.2-9.9-16.5-15.4-26-15.4
			c-9.7,0-19.1,5.6-26.3,15.8C113.19,23.8,112.19,24.3,111.09,24.3z"/>
		<path class="st0" d="M64.79,68.4c-1.6,0-3.1-1.1-3.4-2.8c-2.7-12.4-11.8-21.1-22.1-21.1c-10.3,0-19.4,8.7-22.1,21.1
			c-0.2,1.1-0.9,2-1.9,2.4c-1,0.5-2.1,0.5-3.1,0l-10.3-5.2c-1.7-0.9-2.4-3-1.5-4.7s3-2.4,4.7-1.5l6.5,3.3
			c4.5-13.3,15.4-22.3,27.7-22.3c13.6,0,25.5,11,28.9,26.6c0.4,1.9-0.8,3.8-2.7,4.2C65.19,68.4,64.99,68.4,64.79,68.4z"/>
		<path class="st0" d="M114.59,68.4c-0.2,0-0.5,0-0.7-0.1c-1.9-0.4-3.1-2.3-2.7-4.2c3.4-15.7,15.3-26.6,28.9-26.6
			c12.4,0,23.3,9,27.7,22.3l6.5-3.3c1.7-0.9,3.8-0.2,4.7,1.5c0.9,1.7,0.2,3.8-1.5,4.7l-10.3,5.4c-1,0.5-2.1,0.5-3.1,0
			s-1.7-1.4-1.9-2.4c-2.7-12.4-11.8-21.1-22.1-21.1c-10.3,0-19.4,8.7-22.1,21.1C117.69,67.3,116.19,68.4,114.59,68.4z"/>
	</g>
	<path class="st0" d="M102.49,122.4c-4.3,0-8.6-2.4-12.8-7.2c-4.2,4.8-8.5,7.2-12.8,7.2c-4.1,0-7.4-2.9-10-5.3
		c-0.6-0.6-1.3-1.1-1.8-1.5c-1.5-1.2-1.8-3.4-0.6-4.9c1.2-1.5,3.4-1.8,4.9-0.6c0.7,0.6,1.4,1.2,2.1,1.8c1.7,1.5,3.9,3.5,5.4,3.5
		c2.8,0,6.3-2.8,10-7.8c0.7-0.9,1.7-1.5,2.8-1.5s2.2,0.5,2.8,1.5c3.6,5.1,7.2,7.8,10,7.8c1.5,0,3.7-2,5.4-3.5
		c0.7-0.7,1.4-1.3,2.1-1.8c1.5-1.2,3.7-0.9,4.9,0.6c1.2,1.5,0.9,3.7-0.6,4.9c-0.5,0.4-1.1,1-1.8,1.5
		C109.89,119.4,106.59,122.4,102.49,122.4z"/>
</g>
</svg>
