<?xml version="1.0" encoding="utf-8"?>
<!-- Generator: Adobe Illustrator 26.0.1, SVG Export Plug-In . SVG Version: 6.00 Build 0)  -->
<svg version="1.1" id="Layer_1" xmlns="http://www.w3.org/2000/svg" xmlns:xlink="http://www.w3.org/1999/xlink" x="0px" y="0px"
	 viewBox="0 0 165.63 138.5" style="enable-background:new 0 0 165.63 138.5;" xml:space="preserve">
<style type="text/css">
	.st0{fill:#0A0606;}
	.st1{fill:#FFFFFF;}
	.st2{fill:#EE6F6C;}
</style>
<g>
	<circle class="st0" cx="32.32" cy="65.2" r="32"/>
	<circle class="st1" cx="37.82" cy="51.9" r="13.3"/>
	<circle class="st1" cx="23.12" cy="75.9" r="4.6"/>
	<circle class="st0" cx="133.32" cy="65.2" r="32"/>
	<path class="st0" d="M104.12,18.5c-0.9,0-1.9-0.4-2.6-1.1c-1.3-1.4-1.3-3.6,0.2-4.9c8.6-8.1,19.8-12.5,31.6-12.5
		c11.6,0,22.7,4.3,31.2,12.2c1.4,1.3,1.5,3.5,0.2,4.9s-3.5,1.5-4.9,0.2c-7.2-6.6-16.6-10.3-26.5-10.3c-10,0-19.5,3.8-26.8,10.6
		C105.92,18.2,105.02,18.5,104.12,18.5z"/>
	<circle class="st1" cx="127.82" cy="51.9" r="13.3"/>
	<circle class="st1" cx="142.62" cy="75.9" r="4.6"/>
	<path class="st0" d="M61.52,18.5c-0.9,0-1.7-0.3-2.4-0.9C51.82,10.8,42.32,7,32.32,7c-9.8,0-19.2,3.7-26.5,10.3
		c-1.4,1.3-3.6,1.2-4.9-0.2c-1.3-1.4-1.2-3.6,0.2-4.9C9.62,4.4,20.72,0,32.32,0c11.8,0,23,4.4,31.6,12.5c1.4,1.3,1.5,3.5,0.2,4.9
		C63.42,18.2,62.52,18.5,61.52,18.5z"/>
	<path class="st0" d="M83.02,138.5c15.4,0,27.8-12.5,27.8-27.8h-55.7C55.22,126,67.62,138.5,83.02,138.5z"/>
	<path class="st2" d="M100.42,132.4c-4.1-4.4-10.3-7.2-17.4-7.2c-7.1,0-13.3,2.8-17.4,7.2c4.8,3.8,10.8,6.1,17.4,6.1
		S95.62,136.2,100.42,132.4z"/>
</g>
</svg>
