<?xml version="1.0" encoding="utf-8"?>
<!-- Generator: Adobe Illustrator 26.0.1, SVG Export Plug-In . SVG Version: 6.00 Build 0)  -->
<svg version="1.1" id="Layer_1" xmlns="http://www.w3.org/2000/svg" xmlns:xlink="http://www.w3.org/1999/xlink" x="0px" y="0px"
	 viewBox="0 0 188.4 144.6" style="enable-background:new 0 0 188.4 144.6;" xml:space="preserve">
<style type="text/css">
	.st0{fill:#0A0606;}
	.st1{fill:#EE6F6C;}
</style>
<g>
	<path class="st0" d="M96.65,144.6c10.4,0,18.8-12.5,18.8-27.8h-37.6C77.85,132.1,86.25,144.6,96.65,144.6z"/>
	<path class="st1" d="M108.45,138.5c-2.7-4.4-7-7.2-11.8-7.2s-9,2.8-11.8,7.2c3.2,3.8,7.3,6.1,11.8,6.1S105.25,142.3,108.45,138.5z"
		/>
	<g>
		<path class="st0" d="M73.25,25.3c-1.1,0-2.2-0.5-2.9-1.6C63.25,13,54.05,7.1,44.55,7.1c-9.3,0-18.4,5.7-25.4,16.1
			c-1.1,1.6-3.3,2-4.9,0.9c-1.6-1.1-2-3.3-0.9-4.9C21.75,6.8,32.85,0,44.55,0c11.9,0,23.1,7,31.6,19.7c1.1,1.6,0.6,3.8-1,4.9
			C74.65,25.1,73.95,25.3,73.25,25.3z"/>
		<path class="st0" d="M115.15,25.3c-0.7,0-1.3-0.2-1.9-0.6c-1.6-1.1-2-3.2-1-4.9c8.4-12.7,19.6-19.7,31.5-19.7
			c11.7,0,22.8,6.8,31.2,19.2c1.1,1.6,0.7,3.8-0.9,4.9c-1.6,1.1-3.8,0.7-4.9-0.9c-7.1-10.4-16.1-16.1-25.4-16.1
			c-9.5,0-18.6,5.9-25.8,16.6C117.35,24.7,116.25,25.3,115.15,25.3z"/>
	</g>
	<g>
		<path class="st0" d="M70.75,79.6h-57.6c-0.9,0-1.8-0.4-2.5-1L1.05,69c-1.4-1.4-1.4-3.6,0-5s3.6-1.4,5,0l8.6,8.6h56.1
			c1.9,0,3.5,1.6,3.5,3.5S72.75,79.6,70.75,79.6z"/>
		<path class="st0" d="M175.25,79.6h-57.6c-1.9,0-3.5-1.6-3.5-3.5s1.6-3.5,3.5-3.5h56.1l8.6-8.6c1.4-1.4,3.6-1.4,5,0s1.4,3.6,0,5
			l-9.6,9.6C177.05,79.2,176.15,79.6,175.25,79.6z"/>
	</g>
</g>
</svg>
