<?xml version="1.0" encoding="utf-8"?>
<!-- Generator: Adobe Illustrator 26.0.1, SVG Export Plug-In . SVG Version: 6.00 Build 0)  -->
<svg version="1.1" id="Layer_1" xmlns="http://www.w3.org/2000/svg" xmlns:xlink="http://www.w3.org/1999/xlink" x="0px" y="0px"
	 viewBox="0 0 165.63 135" style="enable-background:new 0 0 165.63 135;" xml:space="preserve">
<style type="text/css">
	.st0{fill:#0A0606;}
</style>
<g>
	<g>
		<path class="st0" d="M61.52,18.5c-0.9,0-1.7-0.3-2.4-0.9C51.82,10.8,42.32,7,32.32,7c-9.8,0-19.2,3.7-26.5,10.3
			c-1.4,1.3-3.6,1.2-4.9-0.2c-1.3-1.4-1.2-3.6,0.2-4.9C9.62,4.4,20.72,0,32.32,0c11.8,0,23,4.4,31.6,12.5c1.4,1.3,1.5,3.5,0.2,4.9
			C63.42,18.2,62.42,18.5,61.52,18.5z"/>
		<path class="st0" d="M104.12,18.5c-0.9,0-1.9-0.4-2.6-1.1c-1.3-1.4-1.3-3.6,0.2-4.9c8.6-8.1,19.8-12.5,31.6-12.5
			c11.6,0,22.7,4.3,31.2,12.2c1.4,1.3,1.5,3.5,0.2,4.9s-3.5,1.5-4.9,0.2c-7.2-6.6-16.6-10.3-26.5-10.3c-10,0-19.5,3.8-26.8,10.6
			C105.82,18.2,105.02,18.5,104.12,18.5z"/>
	</g>
	<path class="st0" d="M95.62,135c-4.3,0-8.6-2.4-12.8-7.2c-4.2,4.8-8.5,7.2-12.8,7.2c-4.1,0-7.4-2.9-10-5.3
		c-0.6-0.6-1.3-1.1-1.8-1.5c-1.5-1.2-1.8-3.4-0.6-4.9s3.4-1.8,4.9-0.6c0.7,0.6,1.4,1.2,2.1,1.8c1.7,1.5,3.9,3.5,5.4,3.5
		c2.8,0,6.3-2.8,10-7.8c0.7-0.9,1.7-1.5,2.8-1.5l0,0c1.1,0,2.2,0.5,2.8,1.5c3.6,5.1,7.2,7.8,10,7.8c1.5,0,3.7-2,5.4-3.5
		c0.7-0.7,1.4-1.3,2.1-1.8c1.5-1.2,3.7-0.9,4.9,0.6c1.2,1.5,0.9,3.7-0.6,4.9c-0.5,0.4-1.1,1-1.8,1.5
		C103.02,132.1,99.82,135,95.62,135z"/>
	<g>
		<path class="st0" d="M24.52,75c-1.3,0-2.6-0.8-3.2-2.1c-0.8-1.8,0-3.8,1.8-4.6c0.5-0.2,10.8-4.6,24.2-3.6
			c-4.3-5.3-12.2-12.3-24.8-14.1c-1.9-0.3-3.2-2-3-4s2-3.2,4-3c24.4,3.5,33.8,23.4,34.2,24.3c0.6,1.2,0.4,2.7-0.5,3.7
			s-2.2,1.5-3.5,1.2c-14.9-3.7-27.6,1.8-27.8,1.9C25.52,74.9,25.02,75,24.52,75z"/>
		<path class="st0" d="M141.02,75c-0.5,0-0.9-0.1-1.4-0.3l0,0c-0.1-0.1-12.9-5.5-27.8-1.9c-1.3,0.3-2.7-0.1-3.5-1.2
			c-0.9-1-1-2.5-0.5-3.7c0.4-0.8,9.8-20.8,34.2-24.3c1.9-0.3,3.7,1.1,4,3s-1.1,3.7-3,4c-12.5,1.8-20.4,8.8-24.7,14.1
			c13.4-1.1,23.6,3.3,24.1,3.6c1.8,0.8,2.6,2.8,1.8,4.6C143.72,74.3,142.42,75,141.02,75z"/>
	</g>
</g>
</svg>
