<?xml version="1.0" encoding="utf-8"?>
<!-- Generator: Adobe Illustrator 26.0.1, SVG Export Plug-In . SVG Version: 6.00 Build 0)  -->
<svg version="1.1" id="Layer_1" xmlns="http://www.w3.org/2000/svg" xmlns:xlink="http://www.w3.org/1999/xlink" x="0px" y="0px"
	 viewBox="0 0 165.67 123.57" style="enable-background:new 0 0 165.67 123.57;" xml:space="preserve">
<style type="text/css">
	.st0{fill:#0A0606;}
	.st1{fill:#FFFFFF;}
</style>
<g>
	<path class="st0" d="M32.72,18.55c-11.8,0-23-4.4-31.6-12.5c-1.4-1.3-1.5-3.5-0.2-4.9s3.5-1.5,4.9-0.2c7.3,6.8,16.8,10.6,26.8,10.6
		c9.8,0,19.2-3.7,26.5-10.3c1.4-1.3,3.6-1.2,4.9,0.2s1.2,3.6-0.2,4.9C55.42,14.25,44.32,18.55,32.72,18.55z"/>
	<path class="st0" d="M133.02,18.55c-11.6,0-22.7-4.3-31.2-12.2c-1.4-1.3-1.5-3.5-0.2-4.9s3.5-1.5,4.9-0.2
		c7.2,6.6,16.6,10.3,26.5,10.3c10,0,19.5-3.8,26.8-10.6c1.4-1.3,3.6-1.3,4.9,0.2c1.3,1.4,1.3,3.6-0.2,4.9
		C156.02,14.15,144.82,18.55,133.02,18.55z"/>
	<ellipse transform="matrix(0.1602 -0.9871 0.9871 0.1602 -18.6284 71.0078)" class="st0" cx="32.42" cy="46.45" rx="32" ry="32"/>
	<circle class="st1" cx="37.92" cy="33.15" r="13.3"/>
	<circle class="st1" cx="23.12" cy="57.15" r="4.6"/>
	<circle class="st0" cx="133.42" cy="46.45" r="32"/>
	<circle class="st1" cx="127.92" cy="33.15" r="13.3"/>
	<circle class="st1" cx="142.62" cy="57.15" r="4.6"/>
	<path class="st0" d="M105.02,123.55c-1.2,0-2.3-0.6-3-1.6c-4.2-6.6-11.4-10.6-19.2-10.6s-15,3.9-19.2,10.6c-1,1.6-3.2,2.1-4.8,1.1
		c-1.6-1-2.1-3.2-1.1-4.8c5.5-8.6,14.9-13.8,25.1-13.8c10.3,0,19.7,5.2,25.2,13.9c1,1.6,0.5,3.8-1.1,4.8
		C106.32,123.35,105.72,123.55,105.02,123.55z"/>
</g>
</svg>
