<?xml version="1.0" encoding="utf-8"?>
<!-- Generator: Adobe Illustrator 26.0.1, SVG Export Plug-In . SVG Version: 6.00 Build 0)  -->
<svg version="1.1" id="Layer_1" xmlns="http://www.w3.org/2000/svg" xmlns:xlink="http://www.w3.org/1999/xlink" x="0px" y="0px"
	 viewBox="0 0 188.16 139.25" style="enable-background:new 0 0 188.16 139.25;" xml:space="preserve">
<style type="text/css">
	.st0{fill:#0A0606;}
	.st1{fill:#FFFFFF;}
</style>
<g>
	<path class="st0" d="M11.55,54.95c-0.1,0.8-0.1,1.7-0.1,2.5c0,17.7,14.3,32,32,32s32-14.3,32-32c0-0.8,0-1.7-0.1-2.5H11.55z"/>
	<path class="st1" d="M35.85,54.95c0.8,6.6,6.4,11.7,13.2,11.7s12.4-5.1,13.2-11.7H35.85z"/>
	<circle class="st1" cx="34.25" cy="77.45" r="4.6"/>
	<path class="st0" d="M112.55,54.95c-0.1,0.8-0.1,1.7-0.1,2.5c0,17.7,14.3,32,32,32s32-14.3,32-32c0-0.8,0-1.7-0.1-2.5H112.55z"/>
	<path class="st1" d="M125.85,54.95c0.8,6.6,6.4,11.7,13.2,11.7s12.4-5.1,13.2-11.7H125.85z"/>
	<circle class="st1" cx="153.75" cy="77.45" r="4.6"/>
	<path class="st0" d="M72.65,18.55c-0.9,0-1.7-0.3-2.4-0.9c-7.3-6.8-16.8-10.6-26.8-10.6c-9.8,0-19.2,3.7-26.5,10.3
		c-1.4,1.3-3.6,1.2-4.9-0.2c-1.3-1.4-1.2-3.6,0.2-4.9c8.5-7.8,19.6-12.2,31.2-12.2c11.8,0,23,4.4,31.6,12.5c1.4,1.3,1.5,3.5,0.2,4.9
		C74.55,18.25,73.65,18.55,72.65,18.55z"/>
	<path class="st0" d="M144.15,18.55c-11.6,0-22.7-4.3-31.2-12.2c-1.4-1.3-1.5-3.5-0.2-4.9s3.5-1.5,4.9-0.2
		c7.2,6.6,16.6,10.3,26.5,10.3c10,0,19.5-3.8,26.8-10.6c1.4-1.3,3.6-1.3,4.9,0.2c1.3,1.4,1.3,3.6-0.2,4.9
		C167.15,14.15,155.95,18.55,144.15,18.55z"/>
	<g>
		<path class="st0" d="M70.75,58.45h-57.6c-0.9,0-1.8-0.4-2.5-1l-9.6-9.6c-1.4-1.4-1.4-3.6,0-5s3.6-1.4,5,0l8.6,8.6h56.1
			c1.9,0,3.5,1.6,3.5,3.5S72.65,58.45,70.75,58.45z"/>
		<path class="st0" d="M175.15,58.45h-63.7c-1.9,0-3.5-1.6-3.5-3.5s1.6-3.5,3.5-3.5h62.2l8.6-8.6c1.4-1.4,3.6-1.4,4.9,0
			s1.4,3.6,0,4.9l-9.6,9.6C176.95,58.15,176.05,58.45,175.15,58.45z"/>
	</g>
	<path class="st0" d="M122.45,139.25h-56.7c-1.9,0-3.5-1.6-3.5-3.5s1.6-3.5,3.5-3.5h56.7c1.9,0,3.5,1.6,3.5,3.5
		S124.45,139.25,122.45,139.25z"/>
</g>
</svg>
