<?xml version="1.0" encoding="utf-8"?>
<!-- Generator: Adobe Illustrator 26.0.1, SVG Export Plug-In . SVG Version: 6.00 Build 0)  -->
<svg version="1.1" id="Layer_1" xmlns="http://www.w3.org/2000/svg" xmlns:xlink="http://www.w3.org/1999/xlink" x="0px" y="0px"
	 viewBox="0 0 188.4 126.8" style="enable-background:new 0 0 188.4 126.8;" xml:space="preserve">
<style type="text/css">
	.st0{fill:#0A0606;}
</style>
<g>
	<path class="st0" d="M72.95,18.5c-0.9,0-1.7-0.3-2.4-0.9C63.25,10.8,53.75,7,43.75,7c-9.8,0-19.2,3.7-26.5,10.3
		c-1.4,1.3-3.6,1.2-4.9-0.2s-1.2-3.6,0.2-4.9C21.05,4.4,32.15,0,43.75,0c11.8,0,23,4.4,31.6,12.5c1.4,1.3,1.5,3.5,0.2,4.9
		C74.75,18.1,73.85,18.5,72.95,18.5z"/>
	<path class="st0" d="M115.55,18.5c-0.9,0-1.9-0.4-2.6-1.1c-1.3-1.4-1.3-3.6,0.2-4.9c8.6-8.1,19.8-12.5,31.6-12.5
		c11.6,0,22.7,4.3,31.2,12.2c1.4,1.3,1.5,3.5,0.2,4.9s-3.5,1.5-4.9,0.2c-7.2-6.6-16.6-10.3-26.5-10.3c-10,0-19.5,3.8-26.8,10.6
		C117.25,18.2,116.35,18.5,115.55,18.5z"/>
	<g>
		<path class="st0" d="M70.75,66h-57.6c-0.9,0-1.8-0.4-2.5-1l-9.6-9.6c-1.4-1.4-1.4-3.6,0-5s3.6-1.4,5,0l8.6,8.6h56.1
			c1.9,0,3.5,1.6,3.5,3.5S72.75,66,70.75,66z"/>
		<path class="st0" d="M175.25,66h-57.6c-1.9,0-3.5-1.6-3.5-3.5s1.6-3.5,3.5-3.5h56.1l8.6-8.6c1.4-1.4,3.6-1.4,5,0s1.4,3.6,0,5
			l-9.6,9.6C177.05,65.7,176.15,66,175.25,66z"/>
	</g>
	<path class="st0" d="M122.55,126.8h-56.7c-1.9,0-3.5-1.6-3.5-3.5s1.6-3.5,3.5-3.5h56.7c1.9,0,3.5,1.6,3.5,3.5
		S124.45,126.8,122.55,126.8z"/>
</g>
</svg>
