<?xml version="1.0" encoding="utf-8"?>
<!-- Generator: Adobe Illustrator 26.0.1, SVG Export Plug-In . SVG Version: 6.00 Build 0)  -->
<svg version="1.1" id="Layer_1" xmlns="http://www.w3.org/2000/svg" xmlns:xlink="http://www.w3.org/1999/xlink" x="0px" y="0px"
	 viewBox="0 0 179.39 127.6" style="enable-background:new 0 0 179.39 127.6;" xml:space="preserve">
<style type="text/css">
	.st0{fill:#0A0606;}
	.st1{fill:#FFFFFF;}
</style>
<g>
	<path class="st0" d="M68.49,24.3c-1.1,0-2.2-0.5-2.9-1.5C58.29,12.6,48.99,7,39.29,7c-9.6,0-18.8,5.5-26,15.4
		c-1.1,1.6-3.3,1.9-4.9,0.8c-1.6-1.1-1.9-3.3-0.8-4.9C16.19,6.5,27.39,0,39.29,0c12.1,0,23.4,6.7,32,18.8c1.1,1.6,0.8,3.8-0.8,4.9
		C69.89,24.1,69.19,24.3,68.49,24.3z"/>
	<path class="st0" d="M111.09,24.3c-0.7,0-1.4-0.2-2-0.6c-1.6-1.1-1.9-3.3-0.8-4.9c8.6-12.1,20-18.8,32-18.8
		c11.9,0,23.1,6.5,31.7,18.3c1.1,1.6,0.8,3.8-0.8,4.9c-1.6,1.1-3.8,0.8-4.9-0.8c-7.2-9.9-16.5-15.4-26-15.4
		c-9.7,0-19.1,5.6-26.3,15.8C113.29,23.8,112.19,24.3,111.09,24.3z"/>
	<path class="st0" d="M111.99,100c-4.7,16.6-12.8,27.6-22.2,27.6c-9.3,0-17.6-11.1-22.2-27.7L111.99,100z"/>
	<path class="st0" d="M64.79,68.5c-1.6,0-3.1-1.1-3.4-2.8c-2.7-12.4-11.8-21.1-22.1-21.1s-19.4,8.7-22.1,21.1
		c-0.2,1.1-0.9,2-1.9,2.4c-1,0.5-2.1,0.5-3.1,0l-10.3-5.2c-1.7-0.9-2.4-3-1.5-4.7s3-2.4,4.7-1.5l6.5,3.3
		c4.5-13.3,15.4-22.3,27.7-22.3c13.6,0,25.5,11,28.9,26.6c0.4,1.9-0.8,3.8-2.7,4.2C65.29,68.5,64.99,68.5,64.79,68.5z"/>
	<path class="st0" d="M114.59,68.5c-0.2,0-0.5,0-0.7-0.1c-1.9-0.4-3.1-2.3-2.7-4.2c3.4-15.7,15.3-26.6,28.9-26.6
		c12.4,0,23.3,9,27.7,22.3l6.5-3.3c1.7-0.9,3.8-0.2,4.7,1.5c0.9,1.7,0.2,3.8-1.5,4.7l-10.3,5.2c-1,0.5-2.1,0.5-3.1,0
		s-1.7-1.4-1.9-2.4c-2.7-12.4-11.8-21.1-22.1-21.1c-10.3,0-19.4,8.7-22.1,21.1C117.69,67.4,116.29,68.5,114.59,68.5z"/>
	<path class="st1" d="M70.89,109.4h37.8c1.2-2.9,2.3-6,3.3-9.4l-44.4-0.1C68.59,103.3,69.69,106.5,70.89,109.4z"/>
	<path class="st1" d="M72.89,113.7c4.6,8.7,10.4,13.9,16.8,13.9s12.3-5.2,16.9-13.9H72.89z"/>
</g>
</svg>
