<?xml version="1.0" encoding="utf-8"?>
<!-- Generator: Adobe Illustrator 26.0.1, SVG Export Plug-In . SVG Version: 6.00 Build 0)  -->
<svg version="1.1" id="Layer_1" xmlns="http://www.w3.org/2000/svg" xmlns:xlink="http://www.w3.org/1999/xlink" x="0px" y="0px"
	 viewBox="0 0 166.13 134.42" style="enable-background:new 0 0 166.13 134.42;" xml:space="preserve">
<style type="text/css">
	.st0{fill:#0A0606;}
	.st1{fill:#FFFFFF;}
</style>
<g>
	<g>
		<circle class="st0" cx="32.82" cy="66.42" r="32"/>
		<path class="st0" d="M23.62,26.72c-7.5,0-15-1.9-21.8-5.5c-1.7-0.9-2.3-3-1.4-4.7s3-2.3,4.7-1.4c8.8,4.7,19,5.9,28.6,3.3
			c9.5-2.5,17.6-8.5,22.9-16.8c1-1.6,3.2-2.1,4.8-1.1c1.6,1,2.1,3.2,1.1,4.8c-6.2,9.8-15.8,16.8-27,19.8
			C31.62,26.22,27.62,26.72,23.62,26.72z"/>
		<circle class="st1" cx="38.32" cy="53.12" r="13.3"/>
		<circle class="st1" cx="23.52" cy="77.12" r="4.6"/>
		<circle class="st0" cx="133.82" cy="66.42" r="32"/>
		<path class="st0" d="M104.62,25.52c-0.9,0-1.9-0.4-2.6-1.1c-1.3-1.4-1.3-3.6,0.2-4.9c8.6-8.1,19.8-12.5,31.6-12.5
			c11.6,0,22.7,4.3,31.2,12.2c1.4,1.3,1.5,3.5,0.2,4.9s-3.5,1.5-4.9,0.2c-7.2-6.6-16.6-10.3-26.5-10.3c-10,0-19.5,3.8-26.8,10.6
			C106.32,25.22,105.52,25.52,104.62,25.52z"/>
		<circle class="st1" cx="128.32" cy="53.12" r="13.3"/>
		<circle class="st1" cx="143.02" cy="77.12" r="4.6"/>
	</g>
	<circle class="st0" cx="83.32" cy="123.72" r="10.7"/>
</g>
</svg>
