<?xml version="1.0" encoding="utf-8"?>
<!-- Generator: Adobe Illustrator 26.0.1, SVG Export Plug-In . SVG Version: 6.00 Build 0)  -->
<svg version="1.1" id="Layer_1" xmlns="http://www.w3.org/2000/svg" xmlns:xlink="http://www.w3.org/1999/xlink" x="0px" y="0px"
	 viewBox="0 0 165.53 138.95" style="enable-background:new 0 0 165.53 138.95;" xml:space="preserve">
<style type="text/css">
	.st0{fill:#0A0606;}
	.st1{fill:#FFFFFF;}
</style>
<g>
	<circle class="st0" cx="32.42" cy="59.55" r="32"/>
	<path class="st0" d="M133.32,18.55c-11.8,0-23-4.4-31.6-12.5c-1.4-1.3-1.5-3.5-0.2-4.9s3.5-1.5,4.9-0.2
		c7.3,6.8,16.8,10.6,26.8,10.6c9.8,0,19.2-3.7,26.5-10.3c1.4-1.3,3.6-1.2,4.9,0.2c1.3,1.4,1.2,3.6-0.2,4.9
		C156.02,14.25,144.92,18.55,133.32,18.55z"/>
	<circle class="st1" cx="37.92" cy="46.25" r="13.3"/>
	<circle class="st1" cx="23.22" cy="70.25" r="4.6"/>
	<circle class="st0" cx="133.42" cy="59.55" r="32"/>
	<path class="st0" d="M32.32,18.55c-11.6,0-22.7-4.3-31.2-12.2c-1.4-1.3-1.5-3.5-0.2-4.9s3.5-1.5,4.9-0.2
		c7.2,6.6,16.6,10.3,26.5,10.3c10,0,19.5-3.8,26.8-10.6c1.4-1.3,3.6-1.3,4.9,0.2c1.3,1.4,1.3,3.6-0.2,4.9
		C55.32,14.15,44.12,18.55,32.32,18.55z"/>
	<circle class="st1" cx="127.92" cy="46.25" r="13.3"/>
	<circle class="st1" cx="142.72" cy="70.25" r="4.6"/>
	<circle class="st0" cx="83.12" cy="128.25" r="10.7"/>
</g>
</svg>
