<?xml version="1.0" encoding="utf-8"?>
<!-- Generator: Adobe Illustrator 26.0.1, SVG Export Plug-In . SVG Version: 6.00 Build 0)  -->
<svg version="1.1" id="Layer_1" xmlns="http://www.w3.org/2000/svg" xmlns:xlink="http://www.w3.org/1999/xlink" x="0px" y="0px"
	 viewBox="0 0 165.63 143.3" style="enable-background:new 0 0 165.63 143.3;" xml:space="preserve">
<style type="text/css">
	.st0{fill:#0A0606;}
	.st1{fill:#FFFFFF;}
</style>
<g>
	<path class="st0" d="M61.52,18.5c-0.9,0-1.7-0.3-2.4-0.9C51.82,10.8,42.32,7,32.32,7c-9.8,0-19.2,3.7-26.5,10.3
		c-1.4,1.3-3.6,1.2-4.9-0.2s-1.2-3.6,0.2-4.9C9.62,4.4,20.72,0,32.32,0c11.8,0,23,4.4,31.6,12.5c1.4,1.3,1.5,3.5,0.2,4.9
		C63.32,18.1,62.42,18.5,61.52,18.5z"/>
	<circle class="st0" cx="133.32" cy="59.4" r="32"/>
	<path class="st0" d="M104.12,18.5c-0.9,0-1.9-0.4-2.6-1.1c-1.3-1.4-1.3-3.6,0.2-4.9c8.6-8.1,19.8-12.5,31.6-12.5
		c11.6,0,22.7,4.3,31.2,12.2c1.4,1.3,1.5,3.5,0.2,4.9s-3.5,1.5-4.9,0.2c-7.2-6.6-16.6-10.3-26.5-10.3c-10,0-19.5,3.8-26.8,10.6
		C105.82,18.2,105.02,18.5,104.12,18.5z"/>
	<circle class="st1" cx="127.82" cy="46.1" r="13.3"/>
	<circle class="st1" cx="142.52" cy="70.1" r="4.6"/>
	<path class="st0" d="M82.22,143.3c-10.3,0-19.7-5.2-25.2-13.9c-1-1.6-0.5-3.8,1.1-4.8s3.8-0.5,4.8,1.1c4.2,6.6,11.4,10.6,19.2,10.6
		c7.8,0,15-3.9,19.2-10.6c1-1.6,3.2-2.1,4.8-1.1c1.6,1,2.1,3.2,1.1,4.8C101.92,138.1,92.52,143.3,82.22,143.3z"/>
	<path class="st0" d="M18.32,78.2c-1.3,0-2.6-0.8-3.2-2.1c-0.8-1.8,0-3.8,1.8-4.6c0.5-0.2,10.8-4.6,24.2-3.6
		c-4.3-5.3-12.2-12.3-24.8-14.1c-1.9-0.3-3.2-2-3-4c0.3-1.9,2-3.2,4-3c24.4,3.5,33.8,23.4,34.2,24.3c0.6,1.2,0.4,2.7-0.5,3.7
		s-2.2,1.5-3.5,1.2c-14.9-3.7-27.6,1.8-27.8,1.9C19.22,78.1,18.82,78.2,18.32,78.2z"/>
</g>
</svg>
