<?xml version="1.0" encoding="utf-8"?>
<!-- Generator: Adobe Illustrator 26.0.1, SVG Export Plug-In . SVG Version: 6.00 Build 0)  -->
<svg version="1.1" id="Layer_1" xmlns="http://www.w3.org/2000/svg" xmlns:xlink="http://www.w3.org/1999/xlink" x="0px" y="0px"
	 viewBox="0 0 514.25 685.71" style="enable-background:new 0 0 514.25 685.71;" xml:space="preserve">
<style type="text/css">
	.st0{fill:url(#SVGID_1_);}
	.st1{fill:url(#SVGID_00000045578125258781819930000001222200381632156810_);}
	.st2{fill:url(#SVGID_00000038401209861239023290000000829573802086808192_);}
	.st3{fill:url(#SVGID_00000000932084486831192460000015139812756880555400_);}
	.st4{fill:url(#SVGID_00000155148599229775671440000006139250273586294697_);}
	.st5{fill:url(#SVGID_00000025413567483432313380000003427736717529749395_);}
	.st6{fill:url(#SVGID_00000129911042505448356020000003219406136621526675_);}
	.st7{fill:url(#SVGID_00000057134730679022360680000010748285600634994604_);}
	.st8{fill:url(#SVGID_00000127007673406403907080000008104678202562644909_);}
	.st9{fill:url(#SVGID_00000084498822996294590540000002826282940183472540_);}
	.st10{fill:url(#SVGID_00000016040848189906029440000012552243659279890845_);}
	.st11{fill:#5C412C;}
</style>
<g>
	
		<linearGradient id="SVGID_1_" gradientUnits="userSpaceOnUse" x1="618.9833" y1="1119.6401" x2="650.189" y2="1119.6401" gradientTransform="matrix(0.1414 0.99 -0.99 0.1414 1405.168 -286.2996)">
		<stop  offset="0" style="stop-color:#89AB5B"/>
		<stop  offset="1" style="stop-color:#4A883F"/>
	</linearGradient>
	<path class="st0" d="M421.37,499.11c-7.17-5.01-15.61-7.91-24.05-10.25c-8.39-2.32-17.27-4.17-25.73-2.1
		c-7.99,1.95-14.74,7.23-20.23,13.41c3.38,4.39,7.84,7.97,12.8,10.48c6.87,3.47,14.64,4.97,22.33,4.9c2.88-0.03,5.77-0.27,8.6-0.82
		C405.3,512.74,414.22,506.79,421.37,499.11z"/>
	
		<linearGradient id="SVGID_00000103983862728396377950000005607340363309906846_" gradientUnits="userSpaceOnUse" x1="685.5787" y1="181.1925" x2="736.651" y2="181.1925" gradientTransform="matrix(0.2809 -0.9597 0.9597 0.2809 -312.6708 796.0691)">
		<stop  offset="0" style="stop-color:#89AB5B"/>
		<stop  offset="1" style="stop-color:#4A883F"/>
	</linearGradient>
	<path style="fill:url(#SVGID_00000103983862728396377950000005607340363309906846_);" d="M8.17,142.58
		c7.29,12.32,17.9,22.35,28.89,31.55c10.92,9.14,22.92,17.91,36.92,20.55c13.22,2.5,26.86-0.78,39.23-6.29
		c-2.06-8.84-6.29-17.19-11.98-24.29c-7.88-9.82-18.45-17.31-29.96-22.41c-4.32-1.91-8.78-3.51-13.37-4.6
		C41.35,133.15,24.02,135.98,8.17,142.58z"/>
	
		<linearGradient id="SVGID_00000124137417687793345530000006255521630094656407_" gradientUnits="userSpaceOnUse" x1="740.5432" y1="1161.4115" x2="824.5663" y2="1161.4115" gradientTransform="matrix(-0.1356 0.9908 -0.9908 -0.1356 1669.6635 -60.8943)">
		<stop  offset="0" style="stop-color:#89AB5B"/>
		<stop  offset="1" style="stop-color:#4A883F"/>
	</linearGradient>
	<path style="fill:url(#SVGID_00000124137417687793345530000006255521630094656407_);" d="M481.26,591.32
		c2.83-0.68,5.66-1.39,8.48-2.13c-8.87-16.44-19-32.16-31.57-45.93c-9.71-10.64-21.07-20.16-34.49-25.38
		c-16.53-6.43-35.4-5.82-52.05,0.3c-14.85,5.45-27.95,15.08-38.49,26.91c4.1,13.21,10.37,25.59,20.85,34.34
		c5.18,4.33,11.19,7.57,17.41,10.21c17.16,7.27,36.02,9.98,54.65,9.66C444.67,598.97,463.14,595.68,481.26,591.32z"/>
	
		<linearGradient id="SVGID_00000140002889726396702890000013440720691007438762_" gradientUnits="userSpaceOnUse" x1="245.2945" y1="890.8923" x2="284.3453" y2="890.8923" gradientTransform="matrix(0.8095 0.5871 -0.5871 0.8095 573.3842 -411.1303)">
		<stop  offset="0" style="stop-color:#89AB5B"/>
		<stop  offset="1" style="stop-color:#4A883F"/>
	</linearGradient>
	<path style="fill:url(#SVGID_00000140002889726396702890000013440720691007438762_);" d="M285.21,469.95
		c8.7-14.97,10.92-32.69,10.24-50.13c-10.4,5.06-20.49,10.76-29.61,17.83c-11.55,8.97-21.54,20.29-27.31,33.72
		c-5.21,12.14-6.77,25.54-6.03,38.78c8.4-3.49,16.62-7.4,24.32-12.22C268.19,490.81,278.46,481.55,285.21,469.95z"/>
	
		<linearGradient id="SVGID_00000051343941629052358270000003551399322927903628_" gradientUnits="userSpaceOnUse" x1="317.7269" y1="-9.7878" x2="458.69" y2="-9.7878" gradientTransform="matrix(0.8395 -0.5434 0.5434 0.8395 -128.9278 334.4526)">
		<stop  offset="0" style="stop-color:#89AB5B"/>
		<stop  offset="1" style="stop-color:#4A883F"/>
	</linearGradient>
	<path style="fill:url(#SVGID_00000051343941629052358270000003551399322927903628_);" d="M158.13,84.56
		c-7.04,26.02-10.7,53.34-6.73,80c2.11,14.12,6.42,28.07,14.13,40.07c6.71,10.43,16.12,19.33,27.33,24.53
		c5.46-4.99,10.21-10.9,14.7-16.82c14.62-19.27,27.98-40.08,34.32-63.43c7.97-29.37,4.17-61.15-6.99-89.46
		c-8.95-22.71-22.42-43.35-38.06-62.17C179.59,24.17,166.48,53.72,158.13,84.56z"/>
	
		<linearGradient id="SVGID_00000149360266620589243640000005704054252957858972_" gradientUnits="userSpaceOnUse" x1="323.5108" y1="-79.0042" x2="375.0193" y2="-79.0042" gradientTransform="matrix(0.8395 -0.5434 0.5434 0.8395 -128.9278 334.4526)">
		<stop  offset="0" style="stop-color:#89AB5B"/>
		<stop  offset="1" style="stop-color:#4A883F"/>
	</linearGradient>
	<path style="fill:url(#SVGID_00000149360266620589243640000005704054252957858972_);" d="M109.1,67.11
		c-2.57,9.51-3.91,19.49-2.46,29.23c0.77,5.16,2.34,10.26,5.16,14.64c2.45,3.81,5.89,7.06,9.98,8.96c2-1.83,3.73-3.98,5.37-6.15
		c5.34-7.05,10.22-14.65,12.54-23.18c2.91-10.73,1.52-22.34-2.55-32.69c-3.27-8.3-8.19-15.84-13.9-22.72
		C116.94,45.05,112.15,55.84,109.1,67.11z"/>
	
		<linearGradient id="SVGID_00000069392668585771292890000000483072235929142402_" gradientUnits="userSpaceOnUse" x1="780.0882" y1="2.6359" x2="876.0708" y2="2.6359" gradientTransform="matrix(0.1158 -0.9933 0.9933 0.1158 -2.9293 1136.7688)">
		<stop  offset="0" style="stop-color:#89AB5B"/>
		<stop  offset="1" style="stop-color:#4A883F"/>
	</linearGradient>
	<path style="fill:url(#SVGID_00000069392668585771292890000000483072235929142402_);" d="M1.46,265.33
		c6.01,22.3,20.28,42.14,37.21,58.13c21.12,19.95,47.18,35.16,75.62,41.07c25.54,5.32,53.02,2.74,76.34-8.75
		c-5.68-24.49-21.65-46.37-41.95-61.53c-23.74-17.72-52.89-27-82.2-31.31c-10.23-1.5-20.56-2.44-30.9-2.27
		C24.07,260.86,12.6,262.44,1.46,265.33z"/>
	
		<linearGradient id="SVGID_00000163062332574808864170000015650002517602348708_" gradientUnits="userSpaceOnUse" x1="282.0144" y1="335.9163" x2="349.8861" y2="335.9163" gradientTransform="matrix(0.8494 -0.5277 0.5277 0.8494 -288.9737 406.61)">
		<stop  offset="0" style="stop-color:#89AB5B"/>
		<stop  offset="1" style="stop-color:#4A883F"/>
	</linearGradient>
	<path style="fill:url(#SVGID_00000163062332574808864170000015650002517602348708_);" d="M185.72,510.24
		c-21.82-27.97-48.58-53.04-80.38-68.38c1.07,23.18,4.57,46.24,10.43,68.69c2.37,9.1,5.15,18.14,9.16,26.65
		c8.83,18.75,23.58,34.51,41.19,45.44c16.27,10.11,34.91,16.16,53.94,18.43c-1.86-22.34-6.24-44.25-16.52-64.01
		C198.58,527.52,192.33,518.71,185.72,510.24z"/>
	
		<linearGradient id="SVGID_00000157309851192508990600000006587830459533370522_" gradientUnits="userSpaceOnUse" x1="178.2708" y1="909.0904" x2="241.385" y2="909.0904" gradientTransform="matrix(0.4734 0.8809 -0.8809 0.4734 967.5201 -415.3993)">
		<stop  offset="0" style="stop-color:#89AB5B"/>
		<stop  offset="1" style="stop-color:#4A883F"/>
	</linearGradient>
	<path style="fill:url(#SVGID_00000157309851192508990600000006587830459533370522_);" d="M270.04,232.85
		c6.94-4.75,13.23-10.43,19.01-16.55c15.74-16.63,27.88-36.64,35.45-58.25c-14.72-0.58-29.52,0.11-43.89,3.24
		c-16.28,3.54-32.03,10.32-44.81,21.01c-2.28,1.9-4.46,3.93-6.43,6.14c-7.81,8.75-12.17,20.16-14.17,31.71
		c-1.87,10.76-1.83,21.73-1.57,32.66C233.71,249.84,253.41,244.23,270.04,232.85z"/>
	
		<linearGradient id="SVGID_00000163040928320825162700000004271540644709516973_" gradientUnits="userSpaceOnUse" x1="413.5842" y1="120.7834" x2="469.9322" y2="120.7834" gradientTransform="matrix(0.8803 -0.4745 0.4745 0.8803 -154.1846 466.0883)">
		<stop  offset="0" style="stop-color:#89AB5B"/>
		<stop  offset="1" style="stop-color:#4A883F"/>
	</linearGradient>
	<path style="fill:url(#SVGID_00000163040928320825162700000004271540644709516973_);" d="M300.8,320.78
		c-7.06-10.62-16.11-20.11-26.8-26.97c-3.8,11.03-6.82,22.32-9.03,33.77c-1.09,5.66-1.99,11.37-2.25,17.14
		c-0.85,19.02,5.6,38.28,17.73,52.96c11.06,13.38,26.75,22.85,43.72,26.5c4.52-18.11,1.64-37.88-3.28-56.16
		C316.42,351.41,310.31,335.08,300.8,320.78z"/>
	
		<linearGradient id="SVGID_00000150101230406924627660000003677447628423726268_" gradientUnits="userSpaceOnUse" x1="287.5313" y1="624.3024" x2="404.5862" y2="624.3024" gradientTransform="matrix(0.8478 0.5302 -0.5302 0.8478 463.6563 -317.6665)">
		<stop  offset="0" style="stop-color:#89AB5B"/>
		<stop  offset="1" style="stop-color:#4A883F"/>
	</linearGradient>
	<path style="fill:url(#SVGID_00000150101230406924627660000003677447628423726268_);" d="M514.25,332.19
		c-34.68-6.6-71.43-1.94-103.33,13.2c-5.12,2.43-10.11,5.12-14.86,8.19c-18.04,11.65-32.25,28.65-42.44,47.56
		c-9.2,17.06-15.24,35.66-19.42,54.61c15.04,4.66,30.63,7.54,46.35,8.54c22.92,1.45,46.85-1.36,66.59-13.11
		c10.71-6.37,19.84-15.17,27.53-24.98C495.83,399.22,505.88,365.64,514.25,332.19z"/>
	<path class="st11" d="M264.83,669.41c-0.89-75.84,23.51-151.17,68.02-211.58c44.53-60.4,108.78-105.35,179.95-126.48
		c-70.44,23.42-132.44,70.18-174.07,130.67c-41.63,60.49-62.7,134.43-59.48,206.99L264.83,669.41z"/>
	<path class="st11" d="M258.07,685.71c-13.89-54.14-25.45-108.84-34.84-163.87c-9.39-55.03-16.63-110.39-22.06-165.89
		c-10.88-111.02-14.62-222.49-15.32-333.84c3.1,111.31,9.25,222.6,22.49,333.06c6.61,55.21,15.01,110.19,25.54,164.73
		c10.52,54.54,23.18,108.64,38.13,162.07L258.07,685.71z"/>
	<path class="st11" d="M329.43,466.42c-5.25-29.8-12.51-59.29-21.53-88.23c-9.09-28.92-19.92-57.36-33.48-84.53
		c14.21,26.85,25.74,55.08,35.54,83.86c9.74,28.81,17.73,58.24,23.73,88.11L329.43,466.42z"/>
	<path class="st11" d="M196.59,265.85c8.58-11.39,18.89-21.05,29.49-30.19c10.64-9.11,21.73-17.63,32.88-26.02
		c11.16-8.38,22.42-16.61,33.48-25.09c11.03-8.51,21.97-17.18,31.92-26.97c-9.69,10.05-20.43,19.03-31.25,27.82
		c-10.85,8.78-21.9,17.3-32.83,25.96c-10.92,8.66-21.75,17.44-32.06,26.74c-10.26,9.31-20.18,19.14-28.11,30.27L196.59,265.85z"/>
	<path class="st11" d="M207.92,375.19c-41.83-43.62-94.62-76.91-152.37-95.88c58.19,17.6,112.1,49.73,155.46,92.85L207.92,375.19z"
		/>
	<path class="st11" d="M255.74,681.21c-20.18-40.31-40.35-80.52-63.02-119.34c-22.65-38.78-47.88-76.25-77.74-110.09
		c31.62,32.2,59.02,68.51,83.87,106.29c24.88,37.81,47.3,77.15,69.61,116.34L255.74,681.21z"/>
	<path class="st11" d="M289.41,544.77c56.12-2.24,112.52,9.08,163.15,32.56c-51.22-22.17-107.58-31.89-162.92-28.24L289.41,544.77z"
		/>
	<path class="st11" d="M227.52,516.78c12.66-25.43,27.39-49.77,43.97-72.69c-15.39,23.74-28.8,48.7-40.05,74.52L227.52,516.78z"/>
	<path class="st11" d="M196.02,277.19c-7.45-14.68-16.92-28.35-27.78-40.81c-10.87-12.46-23.13-23.72-36.33-33.77
		c-13.2-10.05-27.33-18.89-42-26.72c-14.67-7.84-29.88-14.67-45.38-20.77c15.62,5.76,30.99,12.27,45.87,19.81
		c14.88,7.54,29.27,16.11,42.79,25.94c13.52,9.83,26.16,20.94,37.46,33.35c11.29,12.4,21.24,26.1,29.19,40.97L196.02,277.19z"/>
	<path class="st11" d="M304.56,504.65c33.05-7.12,67.04-9.37,100.54-6.72c-33.58-1.21-67.23,2.5-99.54,10.93L304.56,504.65z"/>
	<path class="st11" d="M145.73,215.29c-22.75-48.52-30.86-103.51-23.26-156.12c-6.17,52.8,3.48,107.11,27.15,154.23L145.73,215.29z"
		/>
</g>
</svg>
