<?xml version="1.0" encoding="utf-8"?>
<!-- Generator: Adobe Illustrator 26.0.1, SVG Export Plug-In . SVG Version: 6.00 Build 0)  -->
<svg version="1.1" id="Layer_1" xmlns="http://www.w3.org/2000/svg" xmlns:xlink="http://www.w3.org/1999/xlink" x="0px" y="0px"
	 viewBox="0 0 781.79 974.4" style="enable-background:new 0 0 781.79 974.4;" xml:space="preserve">
<style type="text/css">
	.st0{fill:url(#SVGID_1_);}
	.st1{fill:url(#SVGID_00000075137512855022421430000004503267389708786099_);}
	.st2{fill:url(#SVGID_00000017481791422775327380000002002456966221093294_);}
	.st3{fill:url(#SVGID_00000169518972206845769500000011576165794931291546_);}
	.st4{fill:url(#SVGID_00000026134138811406634520000013767217197716073105_);}
	.st5{fill:url(#SVGID_00000003786962334873234540000004541389595048032395_);}
	.st6{fill:url(#SVGID_00000028313853892335572300000016974809170064476847_);}
	.st7{fill:url(#SVGID_00000054961293722362482050000013851103495308016513_);}
	.st8{fill:url(#SVGID_00000126302430856340531490000012340146055259825799_);}
	.st9{fill:url(#SVGID_00000096060023045345209880000000945832644248493717_);}
	.st10{fill:url(#SVGID_00000018203591191655813640000015182412497617706638_);}
	.st11{fill:url(#SVGID_00000181785048948270409920000014467888349161821574_);}
	.st12{fill:url(#SVGID_00000048477960646586267840000017031415363140747421_);}
	.st13{fill:url(#SVGID_00000093137171805290893790000012037001236006400433_);}
	.st14{fill:url(#SVGID_00000129194423203821371580000006599631437980668306_);}
	.st15{fill:url(#SVGID_00000031895202427061957540000004264681288307676044_);}
</style>
<g>
	<g>
		<g>
			<linearGradient id="SVGID_1_" gradientUnits="userSpaceOnUse" x1="285.0941" y1="639.6774" x2="394.1813" y2="639.6774">
				<stop  offset="0" style="stop-color:#89AB5B"/>
				<stop  offset="1" style="stop-color:#4A883F"/>
			</linearGradient>
			<path class="st0" d="M373.15,754.5l-26.55-177.53c-1.84-12.3-4.83-25.41-13.1-29.42c-7.1-3.45-16.4,0.04-27.17,4.08
				c-5.24,1.97-10.66,4-16.27,5.35l-4.97-20.66c4.34-1.05,8.93-2.77,13.78-4.59c13.41-5.04,28.61-10.74,43.92-3.31
				c19.46,9.45,23.1,33.73,24.84,45.4l26.55,177.53L373.15,754.5z"/>
		</g>
		<g>
			
				<linearGradient id="SVGID_00000178910231730861130390000018107348847590250680_" gradientUnits="userSpaceOnUse" x1="478.9155" y1="-338.8571" x2="387.9662" y2="-377.8354" gradientTransform="matrix(0.4379 0.899 -0.899 0.4379 -269.6715 280.8931)">
				<stop  offset="0" style="stop-color:#89AB5B"/>
				<stop  offset="0.3547" style="stop-color:#497838"/>
				<stop  offset="1" style="stop-color:#4A883F"/>
			</linearGradient>
			<path style="fill:url(#SVGID_00000178910231730861130390000018107348847590250680_);" d="M313.19,538.57
				c0.23-0.11,0.46-0.22,0.69-0.32c5.75-12.09,9.52-24.99,5.34-37.31c-5.97-17.6-27.04-26.55-45.46-24.06
				c-18.42,2.49-34.4,13.8-48.33,26.11c-25.27,22.34-46.79,49.81-58.56,81.3c0.2,0.08,0.39,0.16,0.58,0.24
				c32.07-14.12,65.86-24.33,100.4-30.24c8.99-1.54,18.12-2.81,26.67-5.99C300.16,546.21,306.87,541.59,313.19,538.57z"/>
			
				<linearGradient id="SVGID_00000112625852563471055550000002095641246585520051_" gradientUnits="userSpaceOnUse" x1="410.2458" y1="-411.5575" x2="551.4306" y2="-411.5575" gradientTransform="matrix(0.4379 0.899 -0.899 0.4379 -269.6715 280.8931)">
				<stop  offset="0" style="stop-color:#89AB5B"/>
				<stop  offset="1" style="stop-color:#4A883F"/>
			</linearGradient>
			<path style="fill:url(#SVGID_00000112625852563471055550000002095641246585520051_);" d="M313.65,538.73
				c0.08-0.16,0.15-0.32,0.23-0.48c-0.23,0.1-0.46,0.21-0.69,0.32C313.35,538.62,313.5,538.67,313.65,538.73z"/>
			
				<linearGradient id="SVGID_00000131366202034861775260000004770685511887070092_" gradientUnits="userSpaceOnUse" x1="541.1109" y1="-315.6385" x2="474.897" y2="-350.3696" gradientTransform="matrix(0.4379 0.899 -0.899 0.4379 -269.6715 280.8931)">
				<stop  offset="0" style="stop-color:#89AB5B"/>
				<stop  offset="1" style="stop-color:#4A883F"/>
			</linearGradient>
			<path style="fill:url(#SVGID_00000131366202034861775260000004770685511887070092_);" d="M327.48,599.57
				c9.79-10.4,12.86-26.61,7.55-39.86c-3.83-9.54-11.86-17.17-21.37-20.98c-0.15-0.06-0.3-0.11-0.46-0.17
				c-6.33,3.03-13.04,7.64-18.67,9.74c-8.55,3.18-17.68,4.45-26.67,5.99c-34.54,5.9-68.33,16.11-100.4,30.24
				c17.57,7.12,34.78,15.32,52.61,21.79c27.71,10.04,58.66,15.76,86.48,5.99C314.32,609.57,321.82,605.57,327.48,599.57z"/>
		</g>
	</g>
	<g>
		<g>
			
				<linearGradient id="SVGID_00000123410359955851442410000010288634868497342130_" gradientUnits="userSpaceOnUse" x1="174.3228" y1="573.5856" x2="425.8517" y2="573.5856">
				<stop  offset="0" style="stop-color:#89AB5B"/>
				<stop  offset="1" style="stop-color:#4A883F"/>
			</linearGradient>
			<path style="fill:url(#SVGID_00000123410359955851442410000010288634868497342130_);" d="M393.44,863.75l-20.91-3.82
				c16.14-88.37,32.83-179.76,32.04-270.76c-0.87-100.45-24.48-189.15-68.28-256.51c-6.53-10.04-13.91-19.96-23.65-24.56
				c-6.45-3.05-14.57-4.07-24.15-3.03c-38.55,4.18-68.41,35.17-98.13,69.33l-16.04-13.96c31.3-35.96,65.72-71.5,111.87-76.5
				c13.52-1.46,25.47,0.2,35.51,4.94c14.53,6.86,24.16,19.53,32.4,32.19c46.01,70.77,70.81,163.41,71.72,267.92
				C426.63,682,409.76,774.4,393.44,863.75z"/>
		</g>
		<g>
			
				<linearGradient id="SVGID_00000036230772500994089820000016606101292543741828_" gradientUnits="userSpaceOnUse" x1="28.4944" y1="340.3897" x2="118.0025" y2="444.1188">
				<stop  offset="0" style="stop-color:#89AB5B"/>
				<stop  offset="1" style="stop-color:#4A883F"/>
			</linearGradient>
			<path style="fill:url(#SVGID_00000036230772500994089820000016606101292543741828_);" d="M137.47,408.16
				c15.63-18.09,31.46-36.28,50.51-50.72c8.31-6.3,17.48-12.23,25.7-18.86c-1.24-11.91-7-23.36-16.1-31.17
				c-17.67-15.16-43.79-15.21-66.54-10.25c-29.89,6.51-58.36,20.44-80.72,41.33c-0.92,0.85-1.8,1.74-2.69,2.62
				c18.87-2.35,37.92-3.14,56.92-2.22c7.08,0.34,14.63,1.09,20.15,5.54c5.52,4.45,7.46,13.93,2.03,18.49
				c-4.32,3.63-10.78,2.55-16.17,0.88c-18.47-5.72-35.46-15.98-54.35-20.13c-3.18-0.7-6.4-1.21-9.63-1.54
				c-13.43,13.46-24.3,29.54-31.54,47.07c5.02-1.35,10.07-2.57,15.18-3.48c9.59-1.71,19.53-2.65,29.02-0.43
				c9.49,2.21,18.53,8,22.72,16.79c1.07,2.25,1.81,4.9,0.88,7.21c-1.15,2.85-4.55,4.23-7.61,4.04c-3.06-0.2-5.89-1.62-8.65-2.97
				c-16.9-8.23-35.16-14.32-53.92-14.98c-2.56,7.18-4.52,14.57-5.79,22.11c-8.49,50.24,12.88,100.09,19.94,150.61
				c3.53-13.56,10.31-26.47,17.61-38.58C70.74,485.79,104.09,446.78,137.47,408.16z"/>
			
				<linearGradient id="SVGID_00000067224507183681782880000000087750424666600328_" gradientUnits="userSpaceOnUse" x1="144.3462" y1="417.9679" x2="201.2309" y2="484.8911">
				<stop  offset="0" style="stop-color:#89AB5B"/>
				<stop  offset="1" style="stop-color:#4A883F"/>
			</linearGradient>
			<path style="fill:url(#SVGID_00000067224507183681782880000000087750424666600328_);" d="M323.17,348.83
				c-2.46-15.33-11.83-30.01-26-36.33c-17.15-7.64-37.39-2.01-53.87,6.97c-10.66,5.81-20.53,13.03-29.39,21.33
				c-0.04-0.74-0.16-1.48-0.24-2.23c-8.21,6.63-17.38,12.56-25.7,18.86c-19.05,14.44-34.88,32.63-50.51,50.72
				c-33.38,38.62-66.73,77.63-93.08,121.35c-7.29,12.11-14.07,25.02-17.61,38.58c0.16,1.15,0.35,2.3,0.5,3.45
				c14.55-23.74,35.81-43.32,60.67-55.87c26.89-13.58,57.07-18.77,86.28-26.14c17.71-4.47,35.31-9.84,52.12-16.94
				c0.12-4.45,0.73-9.49,0.29-12.56c-1-7.16-2.96-14.17-6.12-20.69c-8.52-17.51-24.94-30.04-34.39-47.06
				c-2.71-4.89-4.47-11.84-0.17-15.41c1.61-1.34,3.76-1.85,5.85-2.02c15.13-1.27,27.32,12.23,34.45,25.64
				c6.15,11.54,10.51,24.02,13.03,36.85c1.29,6.61,3.71,17.76,3.87,27.34c4.36-2.25,8.69-4.6,12.89-7.16
				c22.37-13.63,42.2-32.19,54.96-54.96c-0.1-1.8-0.23-3.6-0.52-5.38c-1.38-8.41-5.51-16.74-12.7-21.3
				c-9.29-5.88-21.23-4.37-32.08-6.12c-6.97-1.12-13.71-3.68-19.66-7.48c-2.28-1.45-4.58-3.27-5.34-5.86
				c-0.99-3.36,1.04-7.05,3.98-8.96c2.93-1.91,6.56-2.38,10.07-2.52c21.99-0.91,44.1,10.16,56.57,28.29
				c3.05,4.44,5.5,9.35,6.71,14.57C322.83,375.38,325.27,361.94,323.17,348.83z"/>
		</g>
	</g>
	<g>
		<g>
			
				<linearGradient id="SVGID_00000080897182928248747050000012266298466158829953_" gradientUnits="userSpaceOnUse" x1="230.0097" y1="480.2265" x2="438.8233" y2="480.2265">
				<stop  offset="0" style="stop-color:#89AB5B"/>
				<stop  offset="1" style="stop-color:#4A883F"/>
			</linearGradient>
			<path style="fill:url(#SVGID_00000080897182928248747050000012266298466158829953_);" d="M410.61,905.69
				c-8.35-90.27-3.49-182.06,1.21-270.82c2.07-39.14,4.21-79.61,5.18-119.32c2.68-109.83-2.13-251.68-63.72-374.8
				c-10.66-21.31-24.51-44.78-46.41-57.33c-18.35-10.52-46.54-11.09-60.09,6.33L230.01,76.7c20.83-26.77,60.82-26.98,87.44-11.72
				c26.97,15.46,43.47,43.53,54.85,66.26c63.69,127.33,68.7,272.54,65.96,384.83c-0.98,40.01-3.13,80.63-5.21,119.92
				c-4.66,88-9.47,179-1.27,267.74L410.61,905.69z"/>
		</g>
		<g>
			
				<linearGradient id="SVGID_00000052805790809966480480000003384540503146776453_" gradientUnits="userSpaceOnUse" x1="195.6278" y1="181.6492" x2="97.5059" y2="23.935">
				<stop  offset="0" style="stop-color:#89AB5B"/>
				<stop  offset="1" style="stop-color:#4A883F"/>
			</linearGradient>
			<path style="fill:url(#SVGID_00000052805790809966480480000003384540503146776453_);" d="M226.28,100.05
				c6.1-5.16,12.2-10.33,18.44-15.31c1.87-1.49,3.8-2.91,5.69-4.36c-0.38,0-0.77,0.04-1.15,0.04c5.04-7.55,2.52-17.63,2.29-25.73
				c-1.21-9.47-4.63-18.62-10.02-26.48c-2.45-3.27-5.12-6.31-7.98-9.12c0.81,2.42,1.39,4.4,1.59,5.23
				c1.41,5.82,2.83,11.76,2.35,17.72c-0.48,5.97-3.19,12.08-8.34,15.14c-3.08-5.1-1.4-11.56-0.67-17.47
				c0.84-6.83,0.22-13.85-1.75-20.44c-0.69-2.29-2.46-5.55-3.41-8.71C207.97-0.23,189.37-5.26,171.37-3.07
				c9,3.92,16.99,10.17,22.76,18.12c8.28,11.43,11.91,26.15,9.9,40.13c-2.27,0.08-3.57-2.52-4.27-4.68
				c-5.22-16.16-11.14-33.69-25.35-42.98c-4.95-3.24-10.63-5.28-16.05-7.68c-7.89,2.62-15.48,6.76-22.38,12.6
				c-6.3,5.46-11.98,11.44-17.16,17.79c0.17,0,0.35,0,0.52,0c7.06-0.1,14.26-0.74,21.07,1.18c5.77,1.63,10.88,4.99,15.81,8.4
				c7.78,5.37,15.57,11.13,20.91,18.93c5.34,7.81,7.89,18.13,4.33,26.89c-0.33,0.81-0.77,1.67-1.55,2.05
				c-1.94,0.96-3.74-1.5-4.61-3.48c-5.8-13.12-15.76-24.4-28.17-31.59c-11.1-6.41-23.65-9.44-36.39-11.52
				c-8.57,12.71-15.14,26.64-19.71,41.2c6.57-2.65,13.27-5.13,20.3-5.85c7.27-0.74,14.6,0.44,21.73,2.04
				c9.15,2.06,18.27,4.87,26.18,9.92c7.91,5.05,14.56,12.54,17.07,21.58c0.7,2.54,0.83,5.8-1.36,7.28c-1.1,0.74-2.52,0.81-3.85,0.7
				c-9.87-0.83-16.86-9.52-24.81-15.42c-10.59-7.85-24.02-11.11-37.2-11.49c-6.98-0.2-13.93,0.36-20.85,1.25
				c-2.94,11.88-4.59,24.04-4.94,36.21c2.43-1.53,4.98-2.85,7.72-3.74c5.67-1.85,11.77-1.8,17.73-1.57
				c15.02,0.58,30.28,2.25,44.06,8.24c2.91,1.27,6.18,3.39,6.08,6.57c-0.08,2.44-2.31,4.38-4.68,4.99c-2.37,0.6-4.87,0.19-7.29-0.15
				c-21.32-3.02-43.42-0.24-63.36,7.88c0.06,4.34,0.15,8.67,0.24,13.01c0.09,4.12,0.17,8.24,0.22,12.36
				c12.63-8.36,27.17-14.08,42.27-14.58c3.16-0.11,7.2,0.7,7.82,3.8c0.54,2.7-2.03,4.95-4.39,6.38
				c-14.24,8.63-31.85,12.3-45.84,20.63c-0.35,10.52-1.31,20.97-3.61,31.26c0.18,0.05,0.37,0.09,0.55,0.15
				c40.63-34.9,81.49-69.52,122.38-104.12C210.88,113.07,218.58,106.56,226.28,100.05z"/>
			
				<linearGradient id="SVGID_00000104682612670065568790000007054469556511883920_" gradientUnits="userSpaceOnUse" x1="270.7596" y1="268.2176" x2="184.9697" y2="128.4879">
				<stop  offset="0" style="stop-color:#89AB5B"/>
				<stop  offset="1" style="stop-color:#4A883F"/>
			</linearGradient>
			<path style="fill:url(#SVGID_00000104682612670065568790000007054469556511883920_);" d="M302.17,116.25
				c3.82-1.28,8-0.9,11.93-0.02c9.64,2.17,18.47,7.45,25.19,14.68c0.04-4.6-0.15-9.37-0.64-14.31c-1.76-5.62-4.62-11-8.82-16.04
				c-4.4-6.3-9.91-10.86-16.13-14.12c-6.22-3.26-13.14-5.23-20.37-6.33c-6.93-2.36-14.16-2.28-21.56-1.61
				c-7.02,0.64-14.19,1.77-21.35,1.89c-1.89,1.46-3.82,2.87-5.69,4.36c-6.24,4.99-12.35,10.15-18.44,15.31
				c-7.7,6.51-15.39,13.02-23.09,19.53c-40.89,34.6-81.75,69.22-122.38,104.12c7.86,2.21,15.78,4.17,23.78,5.85
				c4.45,0.94,8.92,1.78,13.39,2.56c10.41-13.07,19.7-27.02,27.68-41.69c1.07-1.97,2.19-4.04,4.07-5.27
				c1.87-1.24,4.74-1.28,6.07,0.52c0.52,0.7,0.74,1.57,0.9,2.43c1.39,8.05-2.82,15.91-7.09,22.87c-4.7,7.65-9.75,15.24-16.53,21.14
				c-0.82,0.72-1.66,1.4-2.52,2.06c8.75,1.78,18.03,3.15,27.62,4.07c11.12-12.82,19.31-28.2,23.56-44.64
				c1.18-4.56,2.09-9.26,4.34-13.4c2.24-4.14,6.15-7.73,10.84-8.13c4.59,17.7-3.48,35.94-11.36,52.44
				c-2.18,4.56-4.44,9.24-8.19,12.64c-0.91,0.82-1.89,1.52-2.91,2.18c11.34,0.43,22.92,0.22,34.44-0.75c1.04-1.49,2.07-3,3.06-4.53
				c8.59-13.26,15.14-28.15,16.77-43.87c0.28-2.76,0.46-5.66,1.92-8.02c1.46-2.36,4.74-3.88,7.09-2.41
				c1.26,0.78,1.96,2.21,2.42,3.62c2.13,6.55,0.17,13.65-1.78,20.25c-3.33,11.28-6.93,22.95-12.78,33
				c17.58-2.66,34.62-7.21,49.93-13.99c-3.59-12.79-9.28-24.87-14.09-37.25c-0.87-2.25-1.73-4.6-1.54-7.01
				c0.18-2.41,1.71-4.88,4.07-5.37c1.43-0.3,2.92,0.16,4.2,0.85c6.43,3.44,8.37,11.6,9.48,18.8c1.41,9.13,2.54,18.47,2.71,27.73
				c13.43-6.54,25.36-14.9,34.91-25.36c-0.6-3.01-1.43-5.98-2.63-8.82c-5.67-13.43-18.22-22.46-27.47-33.72
				c-1.05-1.28-2.12-2.92-1.54-4.47c0.76-2.03,3.58-2.15,5.7-1.69c16.01,3.46,27,18.25,33.71,33.2c0.52,1.16,1,2.34,1.5,3.52
				c8.15-12.61,13.32-27.62,14.5-45.33c-13.3-7.87-29.41-9.15-44.45-12.88C294.99,120.8,298.35,117.53,302.17,116.25z"/>
		</g>
	</g>
	<g>
		<g>
			
				<linearGradient id="SVGID_00000127011990559772372710000006449565981560474790_" gradientUnits="userSpaceOnUse" x1="382.0269" y1="637.9114" x2="566.929" y2="637.9114">
				<stop  offset="0" style="stop-color:#89AB5B"/>
				<stop  offset="1" style="stop-color:#4A883F"/>
			</linearGradient>
			<path style="fill:url(#SVGID_00000127011990559772372710000006449565981560474790_);" d="M402.87,904.05l-20.85-4.18
				c12.95-64.5,19.49-131.49,25.82-196.27c8.05-82.45,16.38-167.69,37.97-249.43c4.9-18.56,11.29-39.79,25.09-56.75
				c16.19-19.9,40.43-29.42,61.73-24.25c13.09,3.18,24.82,13.22,30.61,26.2c5.09,11.41,4.91,23.71-0.48,33.73l-18.72-10.08
				c3.08-5.72,1.19-11.85-0.21-15c-3.12-6.99-9.48-12.57-16.21-14.2c-15.22-3.68-31.17,5.88-40.22,17.01
				c-11.13,13.68-16.49,31.58-21.03,48.75c-21.15,80.08-29.39,164.46-37.36,246.07C422.62,770.96,416.03,838.5,402.87,904.05z"/>
		</g>
		<g>
			
				<linearGradient id="SVGID_00000177480914117557785240000009369918483942781887_" gradientUnits="userSpaceOnUse" x1="421.0026" y1="529.8817" x2="781.7874" y2="529.8817">
				<stop  offset="0" style="stop-color:#89AB5B"/>
				<stop  offset="1" style="stop-color:#4A883F"/>
			</linearGradient>
			<path style="fill:url(#SVGID_00000177480914117557785240000009369918483942781887_);" d="M598.96,521.28
				c-14.07-29.14-28.79-58.14-38.95-88.86c-2.21-6.68-4.18-13.46-5.89-20.3c-4.75,8.08-6.69,7.12-15.21,0.08
				c-8.71-7.2-14.25-15.96-25-20.7c-20.06-8.86-43.57-1.77-59.17,12.6c-14.61,13.46-23.14,32.35-28.28,51.53
				c-7.21,26.91-7.59,56.7,0.74,82.98c12.7-26.52,33.68-49.14,59.6-63.1c5.46-2.94,12.78-5.32,17.36-1.13
				c5.42,4.95,1.66,14.24-3.86,19.09c-9.73,8.55-23.25,11.45-33.69,19.12c-15.27,11.22-21.83,31.38-21.29,50.32
				c0.11,3.88,0.53,7.72,1.1,11.53c2.14,2.59,4.37,5.1,6.8,7.48c8.37,8.17,18.16,14.75,28.2,20.73c2.51,1.49,5.06,2.9,7.61,4.33
				c-2.64-15.35-2.41-31.14,1.65-46.14c6.07-22.45,21.01-42.84,41.76-53.35c2.8-1.42,6.24-2.64,8.95-1.06
				c1.92,1.12,2.89,3.36,3.37,5.53c1.73,7.86-1.45,16.05-6.04,22.66c-4.59,6.6-10.56,12.13-15.46,18.52
				c-13.19,17.21-17.81,40.09-14.96,61.58c0.11,0.82,0.3,1.63,0.43,2.44c14.14,6.71,28.75,12.43,43.7,17.06
				c-2.94-7.74-4.36-16.15-4.35-24.45c0.02-15.03,4.12-29.76,9.03-43.97c1.86-5.38,5.05-11.66,10.74-11.91
				c5.5-0.24,9.3,5.48,10.87,10.75c5.97,20.07-3.3,41.18-4.9,62.06c-0.34,4.45-0.21,8.91,0.18,13.35c1.65,0.39,3.29,0.83,4.95,1.19
				c29.35,6.44,62.02,10.14,83.28,30.93c-4.07-18.19-11.33-35.91-18.71-53.11C629.39,586.13,614.53,553.54,598.96,521.28z"/>
			
				<linearGradient id="SVGID_00000010269817104483681500000000592630034621546416_" gradientUnits="userSpaceOnUse" x1="739.1008" y1="430.3644" x2="608.9446" y2="530.8989">
				<stop  offset="0" style="stop-color:#89AB5B"/>
				<stop  offset="1" style="stop-color:#4A883F"/>
			</linearGradient>
			<path style="fill:url(#SVGID_00000010269817104483681500000000592630034621546416_);" d="M779.19,486.05
				c-17.73-13.73-40.15-21.44-62.33-26.19c-27.74-5.95-56.32-8.14-83.43-16.51c0.09-6.78,8.24-10.13,14.94-11.14
				c27.62-4.19,55.85,1.51,82.39,10.25c13.81,4.55,27.32,9.92,40.86,15.22c-8.47-24.3-21.45-47.12-36.28-68.26
				c-3.23-4.61-6.63-9.19-10.21-13.62c-17.65,2.07-34.91,7.55-50.33,16.39c-10.03,5.75-20.67,13.11-32.04,11.05
				c-1.8-0.33-3.69-0.99-4.7-2.52c-0.66-0.99-0.85-2.21-0.92-3.39c-0.57-9.47,5.63-18.36,13.59-23.53
				c7.96-5.18,17.46-7.32,26.78-9.12c11.37-2.2,23.21-3.95,34.67-3.16c-8.99-8.65-19.14-15.82-30.86-20.03
				c-9.7-3.48-20.11-4.78-30.41-4.5c-20.87,0.56-41.45,7.82-58.29,20.12c-20.24,14.78-26.05,32.75-37.56,53.42
				c-0.32,0.57-0.62,1.1-0.91,1.6c1.71,6.84,3.68,13.62,5.89,20.3c10.17,30.73,24.88,59.72,38.95,88.86
				c15.57,32.26,30.43,64.85,44.56,97.76c7.39,17.21,14.65,34.93,18.71,53.11c0.77,0.75,1.56,1.47,2.3,2.27
				c14.63-16.56,32.98-29.48,50.71-42.92c-5.46-11.36-12.89-21.9-21.29-31.34c-14.77-16.62-32.32-30.46-48.91-45.27
				c-3.18-2.85-6.44-5.88-7.98-9.87c-1.53-3.99-0.77-9.2,2.84-11.48c4.17-2.64,9.62-0.31,13.84,2.23
				c25.25,15.14,45.57,37.49,61.9,61.99c4.9,7.35,9.44,14.91,13.77,22.6c10.5-8.63,20.29-17.91,28.39-28.75
				c-11.32-23.74-30.86-43.22-52.76-58.06c-24.86-16.84-52.86-28.36-80.51-40.08c-4.95-2.1-10.85-5.94-9.65-11.17
				c0.95-4.15,5.87-5.89,10.09-6.44c13.27-1.74,26.72,1.14,39.52,5.08c43.14,13.26,82.19,39.08,111.84,73.06
				C782.67,532.19,783.29,508.51,779.19,486.05z"/>
		</g>
	</g>
	<g>
		<g>
			
				<linearGradient id="SVGID_00000053504208826315098720000013146025329844750233_" gradientUnits="userSpaceOnUse" x1="374.626" y1="504.0042" x2="582.4352" y2="504.0042">
				<stop  offset="0" style="stop-color:#89AB5B"/>
				<stop  offset="1" style="stop-color:#4A883F"/>
			</linearGradient>
			<path style="fill:url(#SVGID_00000053504208826315098720000013146025329844750233_);" d="M410.89,973.7
				c-41.37-165.52-37.68-341.63-34.42-497.01c2.14-102.35,4.58-218.36,25.49-328.68c4.19-22.11,9.77-47.54,23.01-69.49
				c15.05-24.96,38.63-41.35,63.09-43.86c44.33-4.54,79.98,34.61,94.38,72.9l-19.9,7.48c-11.62-30.9-39.2-62.62-72.31-59.23
				c-17.84,1.83-35.43,14.42-47.05,33.69c-11.42,18.93-16.48,42.18-20.33,62.47c-20.59,108.58-23,223.65-25.13,325.17
				c-3.23,154.05-6.89,328.65,33.79,491.41L410.89,973.7z"/>
		</g>
		<g>
			
				<linearGradient id="SVGID_00000181064415849485184160000000204661623675025560_" gradientUnits="userSpaceOnUse" x1="604.2679" y1="143.6602" x2="487.1251" y2="248.4068">
				<stop  offset="0" style="stop-color:#89AB5B"/>
				<stop  offset="1" style="stop-color:#4A883F"/>
			</linearGradient>
			<path style="fill:url(#SVGID_00000181064415849485184160000000204661623675025560_);" d="M558.11,92.34
				c-9.39-14.45-22.54-26.23-36.88-35.62c-13.97-9.13-30.61-16.43-46.97-13.13c-11.99,2.42-22.37,10.44-29.43,20.43
				c-0.58,0.82-1.11,1.67-1.65,2.52c1.73-0.22,3.46-0.39,5.19-0.48c20.44-1.04,40.53,5.45,59.33,13.55
				c2.81,1.21,6.14,3.51,5.33,6.46c-0.85,3.04-5.09,3.16-8.19,2.51c-15.24-3.2-29.77-9.26-45.06-12.2
				c-6.92-1.33-14.19-1.92-21.24-1.35c-3.35,7.23-5.65,14.99-7.28,22.81c-1.76,8.43-2.76,16.94-3.1,25.47
				c6.62-3.82,14.04-6.69,21.23-8.98c17.29-5.51,36.97-9.31,52.94-0.68c0.95,0.51,1.92,1.11,2.46,2.04c1.92,3.32-2.7,6.54-6.42,7.46
				c-18.21,4.51-37.66,4.45-54.87,11.93c-5.32,2.31-10.31,5.35-14.83,8.97c1.68,19.11,6.62,37.99,14.25,55.83
				c9.76-19.31,24.35-36.18,42.2-48.43c5.72-3.92,12.29-7.51,19.19-6.8c6.89,0.72,13.42,7.65,11.21,14.22
				c-1.1,3.27-3.94,5.59-6.67,7.7c-16.83,12.96-34.52,24.9-50.02,39.42c-3.02,2.83-5.96,5.78-8.78,8.84
				c5.84,11.05,12.73,21.57,20.5,31.37c12.13-25.98,27.47-51.3,52.43-64.6c3.03-1.62,6.86-3,9.73-1.11
				c4.82,3.17,1.4,10.65-2.48,14.91c-16.14,17.68-35.5,32.95-47.15,53.85c-1.35,2.42-2.54,4.91-3.65,7.44
				c2.66,2.93,5.39,5.78,8.22,8.54c8.71,8.52,18.09,16.24,27.98,23.24c0.1-0.87,0.16-1.75,0.29-2.62c1.2-8.14,3.6-16.05,6.3-23.82
				c6.59-19,15.78-38.36,32.51-49.54c1.23-0.83,2.97-1.58,4.1-0.61c0.66,0.57,0.8,1.52,0.89,2.39c1.06,10.51-0.18,21.25-3.58,31.26
				c-3.92,11.5-10.63,21.93-14.18,33.55c-2.36,7.75-3.21,15.76-3.3,23.85c7.73,4.3,15.66,8.24,23.8,11.8
				c-1.46-8.29-2.49-16.62-2.55-25.03c-0.11-15.44,3.26-31.32,12.26-43.86c2.18-3.03,4.84-5.96,8.39-7.11
				c3.55-1.15,8.11,0.13,9.52,3.58c0.9,2.2,0.37,4.7-0.27,6.99c-3.55,12.49-10.42,23.76-15.25,35.82c-4.01,10.02-6.4,21-6.69,31.87
				c7.17,2.96,14.47,5.63,21.86,8.04c-0.57-2.9-1.11-5.8-1.56-8.72c-1.77-11.46-1.95-23.72,3.3-34.06c0.55-1.08,1.3-2.24,2.49-2.46
				c1.88-0.35,3.2,1.8,3.73,3.64c2.62,9.15,0.24,18.86-0.73,28.32c-0.53,5.15-0.59,10.34-0.25,15.51
				c13.81,4.13,27.92,7.35,42.13,9.69c-22.24-78.58-46.48-156.58-72.69-233.92C563.24,102.48,560.31,95.72,558.11,92.34z
				 M532.65,116.66c-0.81-0.29-1.63-0.65-2.22-1.26c-1.39-1.44-1.14-3.92,0.13-5.46c1.27-1.53,3.29-2.26,5.26-2.53
				c4.37-0.62,8.97,0.74,12.37,3.56c-0.3,1.71-0.36,3.46-0.14,5.19C543.23,118.26,537.6,118.44,532.65,116.66z M557.48,138.77
				c-0.93,2.17-3.43,3.14-5.72,3.69c-1.66,0.41-3.42,0.71-5.04,0.2c-1.63-0.5-3.05-2.06-2.85-3.75c0.12-0.96,0.72-1.8,1.45-2.44
				c2.95-2.58,6.3-2.91,10.08-2.05c0.08,0.02,0.17,0.02,0.25,0.05C557.11,135.01,558.18,137.15,557.48,138.77z"/>
			
				<linearGradient id="SVGID_00000019652714513137323800000018298627387088349071_" gradientUnits="userSpaceOnUse" x1="700.8803" y1="92.8413" x2="614.1085" y2="184.5714">
				<stop  offset="0" style="stop-color:#89AB5B"/>
				<stop  offset="1" style="stop-color:#4A883F"/>
			</linearGradient>
			<path style="fill:url(#SVGID_00000019652714513137323800000018298627387088349071_);" d="M717.73,143.67
				c-11.25-3.45-23.04-5.13-34.81-4.8c-17.56,0.49-36.09,5.1-52.1-2.15c-4.98-2.25-10.03-7.89-7.15-12.55
				c0.89-1.45,2.39-2.4,3.89-3.2c8.79-4.7,19.03-5.83,29-6.25c17.85-0.74,35.77,0.6,53.32,3.89c-7.18-17.97-17.31-35.06-29.27-50.67
				c-12.42-1.51-25.1-0.84-37.25,2.17c-13.86,3.43-26.83,9.69-39.86,15.56c-6.38,2.87-14.83,5.3-19.58,0.15
				c-3.18-3.44-2.97-8.9-1.27-13.28c4.21-10.88,15.37-17.27,26.09-21.88c9.7-4.17,19.71-7.61,29.93-10.27
				c4.74-1.23,9.63-2.27,14.53-2.79c-9.62-8.93-20.32-16.72-32.77-20.52c-15.88-4.85-35.17-1.74-45.51,11.25
				c-9.15,11.49-9.43,27.58-7.92,42.19c0.73,7.07,5.54,23.45,2.28,30c-1.02,2.05-2.09,2.68-3.16,2.48
				c26.2,77.34,50.45,155.34,72.69,233.92c4.7,0.77,9.41,1.45,14.11,2.04c0.77,0.09,1.6,0.18,2.28-0.19c0.78-0.42,1.17-1.3,1.5-2.12
				c4.79-11.66,10.53-23.01,16.58-34.23c-3.82-12.62-11.16-23.97-22.16-31.06c-6.7-4.32-15.11-7.62-17.92-15.07
				c-0.28-0.73-0.49-1.54-0.26-2.29c0.36-1.23,1.73-1.84,2.98-2.1c4.66-0.98,9.48,0.8,13.62,3.15
				c13.86,7.87,22.86,21.77,29.76,36.35c5.37-9.69,10.81-19.34,15.93-29.07c-4.47-7.96-10.52-15.03-17.82-20.5
				c-11.2-8.41-24.71-13.03-37.42-18.92c-2.99-1.38-6.03-2.9-8.23-5.36c-2.19-2.45-3.4-6.08-2.14-9.13
				c2.45-5.95,11.1-5.31,17.08-2.95c22.76,8.97,40.18,27.1,52.88,48.36c7.01-14.04,13.08-28.34,17.02-43.26
				c-2.26-3.46-4.71-6.8-7.42-9.94c-9.76-11.33-22.8-20.19-37.45-23.19c-11.61-2.38-23.71-1.05-35.38-3.16
				c-2.99-0.54-6.11-1.41-8.18-3.64c-2.07-2.23-2.5-6.21-0.15-8.13c1.44-1.18,3.44-1.3,5.31-1.31c17.05-0.06,33.72,5.19,49.38,11.96
				c9.53,4.12,18.89,8.88,26.96,15.41c3.53,2.85,6.7,6.03,9.69,9.38c0.49-2.85,0.92-5.71,1.23-8.61
				C722.28,173.91,721.11,158.59,717.73,143.67z M593.05,133.85c-2.28-0.48-4.92-1.26-5.72-3.45c-1.16-3.16,2.79-6.07,6.14-5.9
				c2.1,0.11,4.09,0.87,6.09,1.54c1.67-0.15,3.34,0.2,4.65,1.24c2.36,1.87,2.5,6.19-0.14,7.64c-1.6,0.87-3.56,0.52-5.33,0.14
				C596.84,134.66,594.94,134.25,593.05,133.85z M612.89,173.33c-0.92,0.66-2.06,0.92-3.18,1.02c-3.53,0.35-7.35-0.87-9.46-3.71
				c-2.11-2.85-1.93-7.38,0.86-9.57c1.98-1.55,4.62-1.66,7.19-1.46c0.83,0.55,1.59,1.22,2.31,1.92c1.65,1.6,3.25,3.38,3.94,5.57
				C615.22,169.29,614.75,171.99,612.89,173.33z"/>
		</g>
	</g>
</g>
</svg>
