<?xml version="1.0" encoding="utf-8"?>
<!-- Generator: Adobe Illustrator 26.0.1, SVG Export Plug-In . SVG Version: 6.00 Build 0)  -->
<svg version="1.1" id="Layer_1" xmlns="http://www.w3.org/2000/svg" xmlns:xlink="http://www.w3.org/1999/xlink" x="0px" y="0px"
	 viewBox="0 0 658.04 563.82" style="enable-background:new 0 0 658.04 563.82;" xml:space="preserve">
<style type="text/css">
	.st0{fill:url(#SVGID_1_);}
	.st1{fill:url(#SVGID_00000154427840951063428630000005943965845362703253_);}
	.st2{fill:url(#SVGID_00000103977232402690756960000006920541750777686444_);}
	.st3{fill:url(#SVGID_00000010306547228068110870000016873192140357498793_);}
	.st4{fill:url(#SVGID_00000115498766407203666570000007845614969220788631_);}
	.st5{fill:url(#SVGID_00000047021222222343213110000001004122085306722975_);}
	.st6{fill:url(#SVGID_00000009575429526416446600000006635392906783572926_);}
	.st7{fill:url(#SVGID_00000118360125581565624820000017257730542545456797_);}
	.st8{fill:url(#SVGID_00000017507904252743550410000014225098313727464347_);}
</style>
<g>
	<linearGradient id="SVGID_1_" gradientUnits="userSpaceOnUse" x1="132.2213" y1="436.3899" x2="132.2213" y2="321.9729">
		<stop  offset="0" style="stop-color:#89AB5B"/>
		<stop  offset="1" style="stop-color:#4A883F"/>
	</linearGradient>
	<path class="st0" d="M48.42,411.18c30.91,11.43,62.36,23.02,95.26,24.96c32.9,1.94,68.05-7.17,90.26-31.51
		c13.82-15.14,21.54-34.71,28.97-53.82c-43.72-16.4-89.47-33.07-135.87-27.88c-49.1,5.49-92.3,35.2-125.5,72.25
		C17.38,399.72,32.97,405.47,48.42,411.18z"/>
	
		<linearGradient id="SVGID_00000069382861054503826870000002038879777353482880_" gradientUnits="userSpaceOnUse" x1="134.6308" y1="384.3645" x2="134.6308" y2="194.7785" gradientTransform="matrix(0.9999 0.0132 -0.0132 0.9999 1.4277 -8.4453)">
		<stop  offset="0" style="stop-color:#89AB5B"/>
		<stop  offset="1" style="stop-color:#4A883F"/>
	</linearGradient>
	<path style="fill:url(#SVGID_00000069382861054503826870000002038879777353482880_);" d="M222.58,267.72
		c-13.29-8.78-28.24-15.04-43.81-18.37c-37.71-8.05-78.11,1.06-114.79-10.83c-25.98-8.43-47.69-27.97-60.29-52.14
		c-6.85,27.24-4.15,56.89,8.13,82.19c14.64,30.15,42.48,53.59,74.68,62.89c27.75,8.01,57.31,5.78,86.02,8.96
		c28.71,3.18,59.37,13.83,73.95,38.77c16.53-14.52,21.7-39.35,15.83-60.55C256.43,297.43,240.93,279.84,222.58,267.72z"/>
	
		<linearGradient id="SVGID_00000178911438792034323770000012124372385293899408_" gradientUnits="userSpaceOnUse" x1="356.5054" y1="328.1448" x2="356.5054" y2="-9.094947e-13">
		<stop  offset="0" style="stop-color:#89AB5B"/>
		<stop  offset="1" style="stop-color:#4A883F"/>
	</linearGradient>
	<path style="fill:url(#SVGID_00000178911438792034323770000012124372385293899408_);" d="M379.27,0
		c1.1,21.98,6.15,34.95,7.25,56.93c-12.29,99.88-156.84,172.56-90.85,271.22C379.16,230.47,509.7,121.94,379.27,0z"/>
	
		<linearGradient id="SVGID_00000009563859823347497190000000643685353091042460_" gradientUnits="userSpaceOnUse" x1="434.5239" y1="321.6242" x2="434.5239" y2="179.5287">
		<stop  offset="0" style="stop-color:#89AB5B"/>
		<stop  offset="1" style="stop-color:#4A883F"/>
	</linearGradient>
	<path style="fill:url(#SVGID_00000009563859823347497190000000643685353091042460_);" d="M305.83,321.62
		c13.51-3.21,26.74-7.32,39.14-13.52c32-16,56.39-44.61,88.62-60.13c22.73-10.94,48.15-14.79,72.03-22.92
		c23.88-8.13,47.8-22.28,57.59-45.53c-44.67,17.89-95.41,13-141.39,27.16C367.73,223.36,323.15,267.79,305.83,321.62z"/>
	
		<linearGradient id="SVGID_00000062891140006639884740000001954230790568947099_" gradientUnits="userSpaceOnUse" x1="223.4975" y1="345.8743" x2="223.4975" y2="76.8163">
		<stop  offset="0" style="stop-color:#89AB5B"/>
		<stop  offset="1" style="stop-color:#4A883F"/>
	</linearGradient>
	<path style="fill:url(#SVGID_00000062891140006639884740000001954230790568947099_);" d="M286.08,201.94
		c-20.15-60.62-72.63-109.42-134.56-125.12c31.78,20.37,41.05,62.31,43.24,99.99c2.19,37.68,0.75,77.87,20.47,110.05
		c12.97,21.17,39.48,43.87,61.05,59.02C297.48,301.43,301.65,248.75,286.08,201.94z"/>
	
		<linearGradient id="SVGID_00000059267750349597044450000007635502496631039638_" gradientUnits="userSpaceOnUse" x1="463.7831" y1="485.9563" x2="463.7831" y2="315.7361">
		<stop  offset="0" style="stop-color:#89AB5B"/>
		<stop  offset="1" style="stop-color:#4A883F"/>
	</linearGradient>
	<path style="fill:url(#SVGID_00000059267750349597044450000007635502496631039638_);" d="M588.91,440.8
		c-29.81-54.52-81.54-96.65-140.96-114.8c-38.38-11.72-79.68-13.3-118.99-5.29c5.31,31.95,15.79,65,42.29,82.83
		c15.3,10.29,33.96,14.01,52.07,17.5c23.72,4.58,47.45,9.16,71.18,13.74c38.17,7.37,80.84,17.77,100.72,51.18
		C602.72,471.97,596.52,454.73,588.91,440.8z"/>
	
		<linearGradient id="SVGID_00000031197995766556754610000014595474292953096350_" gradientUnits="userSpaceOnUse" x1="488.7117" y1="345.8734" x2="488.7117" y2="250.5767">
		<stop  offset="0" style="stop-color:#89AB5B"/>
		<stop  offset="1" style="stop-color:#4A883F"/>
	</linearGradient>
	<path style="fill:url(#SVGID_00000031197995766556754610000014595474292953096350_);" d="M479.36,253.89
		c-58.78,8.17-115.78,32.4-159.98,71.96c53.7,28.89,123.91,26.78,174.38-8.06c16.42-11.33,31.07-25.79,49.66-33.03
		c13.42-5.22,28.02-6.32,42.38-7.37c24.08-1.75,48.16-3.51,72.24-5.27C600.65,253.34,539.17,245.59,479.36,253.89z"/>
	
		<linearGradient id="SVGID_00000108289065516823618330000005069987297041917585_" gradientUnits="userSpaceOnUse" x1="304.1059" y1="266.6626" x2="258.685" y2="550.2344">
		<stop  offset="0" style="stop-color:#89AB5B"/>
		<stop  offset="1" style="stop-color:#4A883F"/>
	</linearGradient>
	<path style="fill:url(#SVGID_00000108289065516823618330000005069987297041917585_);" d="M306.63,354.08
		c-3.88-13.22-8.25-26.94-15.86-38.19c-4.83-1.08-96.13-20.5-66.89,68.94c28.37,86.8,88.24,159.33,105.18,178.98
		c2.16-11.15,3.82-22.38,4.76-33.75C338.69,470.56,323.45,411.37,306.63,354.08z"/>
	
		<linearGradient id="SVGID_00000093146002559245406010000014455667274544096407_" gradientUnits="userSpaceOnUse" x1="405.5732" y1="526.1637" x2="261.9462" y2="310.1095">
		<stop  offset="0" style="stop-color:#89AB5B"/>
		<stop  offset="1" style="stop-color:#4A883F"/>
	</linearGradient>
	<path style="fill:url(#SVGID_00000093146002559245406010000014455667274544096407_);" d="M374.07,326.54
		c-54.8-91.85-83.07-10.6-83.07-10.6s-0.1-0.02-0.23-0.05c7.6,11.25,11.97,24.97,15.86,38.19c16.82,57.29,32.06,116.47,27.19,175.98
		c-0.93,11.37-2.6,22.6-4.76,33.75c0.98,1.15,1.88,2.18,2.57,2.96C352.83,526.15,428.88,418.4,374.07,326.54z"/>
</g>
</svg>
