<?xml version="1.0" encoding="utf-8"?>
<!-- Generator: Adobe Illustrator 26.0.1, SVG Export Plug-In . SVG Version: 6.00 Build 0)  -->
<svg version="1.1" id="Layer_1" xmlns="http://www.w3.org/2000/svg" xmlns:xlink="http://www.w3.org/1999/xlink" x="0px" y="0px"
	 viewBox="0 0 732.59 616.52" style="enable-background:new 0 0 732.59 616.52;" xml:space="preserve">
<style type="text/css">
	.st0{fill:url(#SVGID_1_);}
	.st1{fill:url(#SVGID_00000037655425881852007340000015549212485701145989_);}
	.st2{fill:url(#SVGID_00000034788683650036496680000001069696063444470168_);}
	.st3{fill:url(#SVGID_00000141437613567175449510000012449725218798239625_);}
	.st4{fill:url(#SVGID_00000106859197574114674910000013198957384921053339_);}
	.st5{fill:url(#SVGID_00000052097287892385545960000015702257655940221068_);}
	.st6{fill:url(#SVGID_00000165210607085654330320000008110397851050798742_);}
	.st7{fill:url(#SVGID_00000036229335366366075840000011445738372510593969_);}
	.st8{fill:url(#SVGID_00000039116266497502383470000014976616453730572217_);}
	.st9{fill:url(#SVGID_00000170273554701032197380000000715600475148966585_);}
	.st10{fill:url(#SVGID_00000151540658168240574400000015548770771757113497_);}
	.st11{fill:url(#SVGID_00000075883590534066958530000009128412091581961889_);}
	.st12{fill:url(#SVGID_00000075852322538480702130000006822748467275829412_);}
</style>
<g>
	<linearGradient id="SVGID_1_" gradientUnits="userSpaceOnUse" x1="631.3696" y1="235.9939" x2="347.4799" y2="174.9036">
		<stop  offset="0" style="stop-color:#89AB5B"/>
		<stop  offset="1" style="stop-color:#4A883F"/>
	</linearGradient>
	<path class="st0" d="M680.05,252.99c-15.86-15.9-33.03-30.5-51.27-43.59c-46.43-33.32-101.4-57.12-158.55-57.96
		c-49.05-0.72-99.51,17.42-133.15,52.45c31.92-10.71,64.55-19.47,98.06-19.67c52.87-0.31,103.33,20.64,151.51,42.45
		c41.71,18.88,83.31,38.85,119.99,66.23c7.85,5.86,15.4,12.03,22.72,18.44C714.33,290.73,698.09,271.07,680.05,252.99z"/>
	
		<linearGradient id="SVGID_00000035520297769606743640000011111272777989532337_" gradientUnits="userSpaceOnUse" x1="443.1235" y1="108.6725" x2="459.2939" y2="172.755" gradientTransform="matrix(0.992 0.1266 -0.1266 0.992 49.2524 -77.0145)">
		<stop  offset="0" style="stop-color:#89AB5B"/>
		<stop  offset="1" style="stop-color:#4A883F"/>
	</linearGradient>
	<path style="fill:url(#SVGID_00000035520297769606743640000011111272777989532337_);" d="M469.53,105.8
		c-43-5.84-90.62,7.1-117.24,41.38c-9.89,12.73-16.65,28.39-16.36,44.51c0.16,9.14,2.85,18.36,7.72,26.06
		c-2.16-27.29,17.63-54.79,43.13-66.82c28.88-13.62,62.58-11.71,94.06-6.36c56.04,9.53,109.47,28.93,159.92,54.98
		c-17.14-14.5-34.94-28.27-53.46-41.2C551.71,133.52,512.54,111.64,469.53,105.8z"/>
	
		<linearGradient id="SVGID_00000160880446323552377420000018179486198617617065_" gradientUnits="userSpaceOnUse" x1="454.0991" y1="385.674" x2="365.4582" y2="198.2103">
		<stop  offset="0" style="stop-color:#89AB5B"/>
		<stop  offset="1" style="stop-color:#4A883F"/>
	</linearGradient>
	<path style="fill:url(#SVGID_00000160880446323552377420000018179486198617617065_);" d="M468.23,196.47
		c-9.79-16.23-23.53-30.84-41.25-37.56c-23.03-8.73-49.99-2.54-69.82,12.07c-9.74,7.18-17.9,16.14-24.7,26.15
		c11.47-0.65,23.12,0.97,33.87,4.85c29.52,10.65,52.22,35.78,65.46,64.24c13.24,28.45,17.95,60.13,19.96,91.44
		c4.48,69.46-3.51,138.4-17.58,206.63c33.92-83.46,60.32-169.69,59.52-259.09C493.34,267.53,487.7,228.73,468.23,196.47z"/>
	
		<linearGradient id="SVGID_00000160895134830825313220000003129160479217572797_" gradientUnits="userSpaceOnUse" x1="330.0279" y1="306.529" x2="568.9825" y2="240.6516" gradientTransform="matrix(0.992 0.1266 -0.1266 0.992 49.2524 -77.0145)">
		<stop  offset="0" style="stop-color:#89AB5B"/>
		<stop  offset="1" style="stop-color:#4A883F"/>
	</linearGradient>
	<path style="fill:url(#SVGID_00000160895134830825313220000003129160479217572797_);" d="M520.82,57.28
		c-33.52-11.05-71.09-7.76-103.27,6.76c-32.18,14.52-58.99,39.78-77.6,69.78c-6.27,10.11-11.77,21.15-12.44,33.03
		c-0.53,9.32,1.95,18.54,4.85,27.42c2.56,7.82,5.49,15.53,8.73,23.1c-0.3-39.9,18.12-79.79,49.22-104.9
		c34.53-27.89,83.57-36.67,125.63-22.5c24.85,8.37,46.71,23.96,66.07,41.65c64.22,58.68,102.79,140.07,132.46,221.84
		c6.97,19.22,13.53,38.6,19.62,58.13c-18.18-92.44-54.4-181.37-106.82-259.68C600.36,111.71,566.77,72.43,520.82,57.28z"/>
	
		<linearGradient id="SVGID_00000134252104158904437610000016159797060820733108_" gradientUnits="userSpaceOnUse" x1="487.74" y1="216.8198" x2="494.9271" y2="183.2801">
		<stop  offset="0" style="stop-color:#89AB5B"/>
		<stop  offset="1" style="stop-color:#4A883F"/>
	</linearGradient>
	<path style="fill:url(#SVGID_00000134252104158904437610000016159797060820733108_);" d="M607,321.95
		c-6.96-66.89-38.52-136.43-99.04-165.75c-36.69-17.78-81.29-18.35-118.42-1.51c-23.88,10.83-44.31,28.38-60.06,49.43
		c6.05-2.59,12.39-4.53,18.79-5.82c20.56-4.14,41.84-2.3,62.57,0.88c37.44,5.75,75.93,16.77,103.14,43.13
		c29.56,28.62,41.28,70.93,46.69,111.73c11.81,89.13-0.71,178.15-22.85,265.82C582.11,525.09,617.7,424.8,607,321.95z"/>
	
		<linearGradient id="SVGID_00000004511110608018246390000002034216011658708639_" gradientUnits="userSpaceOnUse" x1="-7.2558" y1="401.7078" x2="309.5913" y2="401.7078" gradientTransform="matrix(0.6909 0.7229 -0.7229 0.6909 396.326 -264.7155)">
		<stop  offset="0" style="stop-color:#89AB5B"/>
		<stop  offset="1" style="stop-color:#4A883F"/>
	</linearGradient>
	<path style="fill:url(#SVGID_00000004511110608018246390000002034216011658708639_);" d="M353.33,118.93
		c-5.55-36.48-26.49-70.35-56.65-91.62C262.91,3.5,219.26-3.96,178.36,1.9C137.45,7.76,99.11,26.06,65.18,49.64
		C44.43,64.07,25.19,80.46,6.66,97.66c40.73-15.64,82.98-26.11,126.62-28.23c51.43-2.49,105.09,7.64,146.63,38.07
		c34.8,25.5,59.26,66.97,60.47,109.47C351.23,185.28,358.34,151.86,353.33,118.93z"/>
	
		<linearGradient id="SVGID_00000142859188486916494800000009876143146108328616_" gradientUnits="userSpaceOnUse" x1="0" y1="277.9055" x2="340.6962" y2="277.9055">
		<stop  offset="0" style="stop-color:#89AB5B"/>
		<stop  offset="1" style="stop-color:#4A883F"/>
	</linearGradient>
	<path style="fill:url(#SVGID_00000142859188486916494800000009876143146108328616_);" d="M146.38,61.07
		c-37.9,7.29-70.25,33.63-91.5,65.85c-21.25,32.22-32.52,69.99-40.19,107.82C-2.74,320.74-2.8,409.19,4.9,496.8
		c8.49-94.88,24.24-189.36,62.97-275.95c8.82-19.72,18.93-39.12,33-55.52c14.07-16.4,32.47-29.72,53.5-34.65
		c17.39-4.08,35.66-2.27,53.11,1.56c52.44,11.53,99.82,42.53,133.22,84.47c-15.35-40.84-35.5-80.56-66.58-111.02
		C240.61,72.86,192.45,52.22,146.38,61.07z"/>
	
		<linearGradient id="SVGID_00000122707359554333287130000012067225334216266152_" gradientUnits="userSpaceOnUse" x1="418.7559" y1="81.8346" x2="90.5527" y2="120.1649" gradientTransform="matrix(0.8868 -0.4622 0.4622 0.8868 -96.3174 275.8016)">
		<stop  offset="0" style="stop-color:#89AB5B"/>
		<stop  offset="1" style="stop-color:#4A883F"/>
	</linearGradient>
	<path style="fill:url(#SVGID_00000122707359554333287130000012067225334216266152_);" d="M228.16,156.55
		c-50.01-1.24-100.07,21.88-131.55,60.77c-14.42,17.81-24.96,38.47-33.57,59.71C42.36,328,32.61,382.86,32.48,437.92
		C65,355.13,119.04,281.35,192.51,231.87c37.62-25.33,82.93-44.02,127.38-44.19C293.22,168.63,260.94,157.36,228.16,156.55z"/>
	
		<linearGradient id="SVGID_00000087389821811949614180000005837634779105524867_" gradientUnits="userSpaceOnUse" x1="224.6689" y1="402.6697" x2="352.1255" y2="402.6697">
		<stop  offset="0" style="stop-color:#89AB5B"/>
		<stop  offset="1" style="stop-color:#4A883F"/>
	</linearGradient>
	<path style="fill:url(#SVGID_00000087389821811949614180000005837634779105524867_);" d="M299.05,191.64
		c-20.4,10.42-33.22,31.29-42.68,52.15c-31.21,68.93-36.3,147.27-28.43,222.54c5.44,52.1,16.8,103.28,29.11,154.26
		c-0.33-1.94-0.66-3.88-0.98-5.81c-18.79-113.71-13.43-231.34,15.63-342.87c6.54-25.11,15.41-51.61,36.1-67.28
		c12.17-9.21,27.29-13.69,42.34-16.24c0.66-0.11,1.32-0.21,1.98-0.31C334.21,183.09,315.5,183.24,299.05,191.64z"/>
	
		<linearGradient id="SVGID_00000130616071457098371390000001961477189381662892_" gradientUnits="userSpaceOnUse" x1="141.382" y1="543.2024" x2="220.4655" y2="543.2024" gradientTransform="matrix(0.8947 0.4466 -0.4466 0.8947 267.3409 -204.9325)">
		<stop  offset="0" style="stop-color:#89AB5B"/>
		<stop  offset="1" style="stop-color:#4A883F"/>
	</linearGradient>
	<path style="fill:url(#SVGID_00000130616071457098371390000001961477189381662892_);" d="M303.93,177.58
		c-10.64-1.14-21.39,1.88-30.97,6.67c-20.98,10.5-36.72,28.91-51.75,46.92c-14.13,16.95-28.23,34.06-39.43,53.07
		c-13.22,22.44-22.15,47.09-31.02,71.58c-10.31,28.51-20.64,57.07-27.88,86.51c-10.03,40.81-13.99,82.77-16.91,124.74
		c32.28-99.27,73.67-195.58,123.54-287.29c18.9-34.75,40.5-70.36,74.76-90.12c4.76-2.74,10.17-5.03,15.7-6.44
		C315.21,180.13,309.6,178.19,303.93,177.58z"/>
	
		<linearGradient id="SVGID_00000147927481897210273120000002784230043461119409_" gradientUnits="userSpaceOnUse" x1="714.5385" y1="65.2168" x2="906.8654" y2="65.2168" gradientTransform="matrix(-0.0595 -0.9982 0.9982 -0.0595 378.6143 926.3572)">
		<stop  offset="0" style="stop-color:#89AB5B"/>
		<stop  offset="1" style="stop-color:#4A883F"/>
	</linearGradient>
	<path style="fill:url(#SVGID_00000147927481897210273120000002784230043461119409_);" d="M332.99,79.92
		c-23.65,22.9-30.19,60.01-20.97,91.61c2.91,9.96,7.2,19.4,12.55,28.22c6.71,4.91,13.92,9.2,21.41,12.77
		c-10.98-29.95-11.1-64.01,1.4-93.42c13.54-31.85,39.78-56.91,69.01-75.45c19.76-12.53,40.98-22.42,62.49-31.72
		c-36.06,12.42-71.44,26.84-105.86,43.05C358.73,61.72,344.34,68.93,332.99,79.92z"/>
	
		<linearGradient id="SVGID_00000023270254692074454410000006922189052496277167_" gradientUnits="userSpaceOnUse" x1="281.6126" y1="427.2336" x2="493.2771" y2="427.2336" gradientTransform="matrix(0.9589 0.2837 -0.2837 0.9589 144.637 -179.759)">
		<stop  offset="0" style="stop-color:#89AB5B"/>
		<stop  offset="1" style="stop-color:#4A883F"/>
	</linearGradient>
	<path style="fill:url(#SVGID_00000023270254692074454410000006922189052496277167_);" d="M456.11,506.15
		c11.57-62.33,14.77-126.6,13.04-190.04c-0.79-29-2.99-59.36-18.31-83.99c-16.89-27.17-48.79-43.58-80.78-44.07
		c-13.13-0.2-26.16,2.14-38.51,6.55c-1.67,1.01-3.31,2.06-4.93,3.15c10.12-2.03,20.45-2.86,30.8-2.2
		c32.86,2.08,65.52,20.86,79.02,50.89c6.47,14.41,8.35,30.4,9.82,46.13c3.54,37.88,5.06,76.05,4.46,114.19
		c0.69,11.21,1.22,22.44,1.86,33.63C453.83,462.26,455.48,484.23,456.11,506.15z"/>
	
		<linearGradient id="SVGID_00000002383140845429037170000000328179641055365801_" gradientUnits="userSpaceOnUse" x1="327.2386" y1="327.805" x2="547.1552" y2="327.805">
		<stop  offset="0" style="stop-color:#89AB5B"/>
		<stop  offset="1" style="stop-color:#4A883F"/>
	</linearGradient>
	<path style="fill:url(#SVGID_00000002383140845429037170000000328179641055365801_);" d="M543.22,337.77
		c-10.17-64.32-46.12-128.33-105.72-154.59c-14.5-6.39-30.27-10.43-46.09-9.67c-24.91,1.2-47.2,14.32-64.17,32.97
		c10.59-7.73,22.42-13.67,35.07-17.2c30.81-8.6,66.06-1.92,89.96,19.34c21.67,19.28,32.4,47.77,41.38,75.35
		c19.66,60.35,34.82,122.88,41.42,185.93c1.34,4.09,2.64,8.19,3.88,12.3C546.39,434.1,550.78,385.6,543.22,337.77z"/>
</g>
</svg>
