<?xml version="1.0" encoding="utf-8"?>
<!-- Generator: Adobe Illustrator 26.0.1, SVG Export Plug-In . SVG Version: 6.00 Build 0)  -->
<svg version="1.1" id="Layer_1" xmlns="http://www.w3.org/2000/svg" xmlns:xlink="http://www.w3.org/1999/xlink" x="0px" y="0px"
	 viewBox="0 0 852.54 1217" style="enable-background:new 0 0 852.54 1217;" xml:space="preserve">
<style type="text/css">
	.st0{fill:#8C633A;}
	.st1{fill:#4A883F;}
	.st2{fill:#497838;}
	.st3{fill:#89AB5B;}
</style>
<g>
	<path class="st0" d="M447.35,1214.97c5.35-75.34,6.09-151.34,5.35-227.51c-0.73-76.19-2.95-152.6-3.52-229.16
		c-0.57-76.53,0.5-153.27,6.52-229.68c5.99-76.37,17.02-152.45,35.99-226.49c-15.46,74.85-22.85,150.98-25.24,227.08
		c-2.4,76.14,0.11,152.3,4.25,228.42c4.14,76.13,9.94,152.26,14.27,228.74c4.33,76.47,7.22,153.34,5.38,230.61L447.35,1214.97z"/>
	<path class="st0" d="M460.24,868.8c-24.29-23.23-45.58-49.31-63.88-77.14c-18.31-27.83-33.67-57.38-46.55-87.82
		c-12.88-30.46-23.3-61.82-31.78-93.61c-8.48-31.79-15.02-64.02-20.03-96.44c6.63,32.12,14.76,63.91,24.76,95.05
		c10,31.13,21.87,61.62,36.04,90.92c14.16,29.29,30.63,57.39,49.72,83.46c19.07,26.06,40.78,50.05,65.01,70.99L460.24,868.8z"/>
	<path class="st0" d="M465.68,964.59c26.42-24.64,49.95-52.58,69.7-83.04c19.72-30.41,35.47-63.6,44.1-98.87
		c8.63-35.3,9.84-72.32,7.19-108.95c-2.63-36.7-8.91-73.17-15.29-109.53c7.99,36.05,15.91,72.2,20.21,109.07
		c4.31,36.79,4.84,74.55-2.47,111.53c-7.31,36.95-22.13,72.14-41.14,104.52c-19.01,32.4-42.09,62.47-68.52,89.41L465.68,964.59z"/>
	<path class="st1" d="M469.2,456.63c0.8-0.29-39.14-81.87-91.12-181.5C326.1,175.49,300.2,88.72,301,88.42
		c-0.8,0.29,39.14,81.88,91.12,181.5C444.1,369.56,470,456.33,469.2,456.63z"/>
	<path class="st2" d="M473.22,430.49c1.51-0.1-20.74-91.78-53.35-204.54C387.25,113.18,391.7,19.78,393.21,19.68
		c-1.52,0.1,20.74,91.78,53.35,204.55C479.18,337,474.73,430.39,473.22,430.49z"/>
	<path class="st3" d="M470.94,442.17c0.93-0.24-34.77-96.82-81.98-215.14C341.75,108.71,322.47,7.88,323.41,7.64
		c-0.94,0.24,34.76,96.82,81.98,215.14C452.6,341.1,471.87,441.93,470.94,442.17z"/>
	<path class="st1" d="M468.33,439.21c0.03,0.39,40.31-68,111.82-133.21c71.18-65.56,142.81-99.74,142.42-99.82
		c0.12,0.23-64.08,44.82-133.85,109.18C518.55,379.26,468.54,439.34,468.33,439.21z"/>
	<path class="st2" d="M465.28,481.72c0,0.51,61.51-83.5,163.37-159.27c101.48-76.28,199.45-111.53,198.96-111.67
		c0.13,0.3-89.5,50.13-188.98,125.01C538.68,410.05,465.54,481.93,465.28,481.72z"/>
	<path class="st3" d="M594.75,697.55c0.33,0.45-0.69-113.23,38.99-246.04c39-133.01,101.73-227.82,101.2-227.63
		c0.31,0.19-45.6,102.31-83.76,232.79C612.18,586.91,595.12,697.57,594.75,697.55z"/>
	<path class="st1" d="M846.73,394.64c1.64,0.24-106.71-45.45-222.06,0.95c-116.83,42.51-166.94,148.9-165.89,147.62
		c-1.66,2.93,35.84-114.77,160.52-161.64C743.4,333.17,849.93,395.71,846.73,394.64z"/>
	<path class="st2" d="M813.3,355.05c1.42,0.32-90.19-46.67-193.93-13.72c-104.78,29.46-155.5,119.06-154.49,118.01
		c-1.65,2.45,38.8-97.85,150.73-130.6C727.12,294.61,816.03,356.2,813.3,355.05z"/>
	<path class="st3" d="M765.71,145.78c1.59-0.43-114.87,1.13-201.1,89.03c-89.12,84.96-92.35,201.39-91.9,199.81
		c-0.34,3.33-13.06-118.36,81.47-210.39C647.55,131.03,769.04,145.49,765.71,145.78z"/>
	<path class="st1" d="M584.68,656.49c0.15,0.89,15.73-81.09,77.95-158.51c61.58-77.93,138.01-111.42,137.12-111.36
		c0.36,0.22-68.04,43.91-127.24,119.23C612.29,580.36,584.98,656.79,584.68,656.49z"/>
	<path class="st2" d="M591.1,654.01c0.52,0.64-25.08-72.16-11.26-162.98c13.06-90.92,58.64-153.2,57.95-152.74
		c0.4,0.01-34.03,66.71-46.4,154.45C577.84,580.3,591.48,654.11,591.1,654.01z"/>
	<path class="st3" d="M470.77,438.1c0.17,1.09,20.34-99.01,97.53-192.9c76.4-94.53,170.38-134.46,169.28-134.4
		c0.44,0.27-83.85,52.81-157.3,144.17C505.59,345.33,471.13,438.48,470.77,438.1z"/>
	<path class="st1" d="M611.96,151.48c0.67,1.03-36.56,49.03-78.32,107.8c-42.85,59.01-59.57,117.91-58.87,117.99
		c1.1,0.68,11.63-60.16,46.18-127.32C555.51,181.88,612,150.53,611.96,151.48z"/>
	<path class="st2" d="M371.47,382.61c0.72,0.65-17.89,44.64-37.77,97.72c-20.66,53.49-21.49,101.61-20.93,101.54
		c0.97,0.29-3.3-48.06,9.41-106.07C334.71,417.1,371.31,381.88,371.47,382.61z"/>
	<path class="st3" d="M360.18,183.37c1.37,0.99-22.71,81.24-47.28,177.57c-25.87,97.2-18.15,181.28-17.21,181.04
		c1.75,0.33-14.89-83.19-3.76-186.75C302.64,250.5,359.76,182.13,360.18,183.37z"/>
	<path class="st1" d="M299.5,540.75c-0.14,1.28,2.79-51.79,47.71-91.47c44.66-39.97,97.72-36.68,96.43-36.69
		c0.23,0.05-48.31,9.26-88.25,45.89C314.34,493.85,299.52,540.98,299.5,540.75z"/>
	<path class="st2" d="M303.36,537.73c0.43,1.81-21.26-71.53,20.43-147.02c41.19-75.76,114.67-96.95,112.92-96.34
		c0.33-0.04-60.98,35.9-97.39,104.85C300.8,467.02,303.5,538.04,303.36,537.73z"/>
	<path class="st1" d="M471.88,402.51c-0.27,1.21,7.99-49.07,54.88-82.27c46.68-33.5,96.91-24.91,95.68-25.05
		c0.21,0.07-46.99,3.86-88.83,34.66C490.85,359.35,471.87,402.73,471.88,402.51z"/>
	<path class="st1" d="M342.86,677.35c-1,0.1-1.14-107.55,2.1-240.7c3.24-133.15-14.55-239-15.55-238.89c1-0.1,1.15,107.55-2.1,240.7
		C324.07,571.6,341.85,677.45,342.86,677.35z"/>
	<path class="st2" d="M593.35,726.35c-0.9-0.48,60.32-91.52,138.91-202.18c78.6-110.65,123.87-210.23,122.97-210.71
		c0.91,0.48-60.32,91.52-138.91,202.18C637.72,626.29,592.45,725.87,593.35,726.35z"/>
	<path class="st3" d="M312.81,588.14c-0.86,0.27-20.97-94.31-42.84-211.92c-21.87-117.62-57.15-207.33-58.01-207.06
		c0.86-0.27,20.97,94.31,42.84,211.92C276.67,498.7,311.95,588.42,312.81,588.14z"/>
	<path class="st1" d="M464.69,470.14c-0.17,0.51-34.23-103.59-111.34-212.65C276.79,148.06,190.33,80.79,190.87,80.81
		c-0.23,0.26,73.13,79.37,148.14,186.76C414.72,374.48,464.36,470.27,464.69,470.14z"/>
	<path class="st2" d="M583.55,622.78c-0.32,0.45-2.14-111.12-44.36-240.45C497.61,252.78,433.71,161.3,434.23,161.49
		c-0.3,0.19,47.29,99.25,87.97,226.34C563.7,514.65,583.19,622.81,583.55,622.78z"/>
	<path class="st3" d="M589.93,695.87c-0.17,0.31-9.05-71.9-45.35-152.85c-35.89-81.13-83.64-136.03-83.28-135.95
		c-0.19,0.15,37.5,61.1,72.65,140.69C569.6,627.13,589.7,695.91,589.93,695.87z"/>
	<path class="st1" d="M326.51,524.33c-1.39-0.38,100.46,1.24,175.69,78.31c77.76,74.5,80.32,176.33,79.93,174.95
		c0.29,2.91,11.68-103.49-70.78-184.18C429.89,511.69,323.6,524.06,326.51,524.33z"/>
	<path class="st2" d="M199.97,340.86c-1.26-0.11,86.91-14.58,163.85,40.22c78.73,52.19,96.81,139.7,96.26,138.56
		c0.71,2.47-6.05-91.15-89.8-147.96C287.24,313.85,197.42,341.09,199.97,340.86z"/>
	<path class="st3" d="M0.07,342.1c-1.54-0.21,107.86-12.79,199.33,59.23c93.82,68.93,110.89,177.72,110.28,176.29
		c0.73,3.08-2.03-112.56-101.77-187.47C109.09,314.02-3.09,342.22,0.07,342.1z"/>
	<path class="st1" d="M586.66,644.01c-0.05,0.81-21.63-71.47-84.73-135.33c-62.57-64.39-134.38-87.43-133.58-87.47
		c-0.3,0.23,65.24,33.2,125.42,95.46C554.79,578.11,586.42,644.31,586.66,644.01z"/>
	<path class="st2" d="M467.23,614.11c-0.02,1.04-31.77-90.36-116.25-168.62c-83.82-78.96-177.16-104.43-176.13-104.52
		c-0.38,0.31,85.48,38.84,166.13,115.22C422.66,531.47,466.93,614.51,467.23,614.11z"/>
	<path class="st3" d="M812.38,546.07c0.83,0.04-73.01,22.85-137.84,88.11c-65.36,64.73-88.28,138.53-88.32,137.7
		c0.24,0.31,33.38-67.16,96.59-129.42C745.17,579.35,812.69,546.31,812.38,546.07z"/>
	<path class="st1" d="M150.65,418.82c-0.39,1.02,41.4,35.69,89.21,78.86c48.83,43.17,74.83,91.31,74.23,91.52
		c-0.82,0.81-21.81-50.23-64.97-102.12C205.78,434.39,150.43,418,150.65,418.82z"/>
	<path class="st2" d="M403.4,495.73c-0.6,1.28,49.67,50.15,106.83,110.57c58.46,60.52,87.05,125.13,86.26,125.34
		c-1.15,0.96-22.98-66.87-73.26-138.04C472.78,521.37,403.2,494.65,403.4,495.73z"/>
	<path class="st3" d="M14.61,398.7c-0.17,1.63,73.41,36.15,158.92,80.71c86.98,44.18,142.76,104.16,141.98,104.68
		c-0.89,1.48-50.49-64.57-132.54-123.53C100.35,400.54,13.97,397.59,14.61,398.7z"/>
	<path class="st1" d="M452.01,585.89c-0.3,1.71,16.08-67.82-26.74-136.05c-42.39-68.5-112.02-84.42-110.35-83.94
		c-0.31-0.02,58.75,30.29,96.32,92.69C450.69,519.8,451.89,586.18,452.01,585.89z"/>
	<path class="st2" d="M307.18,562.69c0.5,1.94-15.9-79.13-93.96-130.2c-77.74-51.56-158.7-34.62-156.72-34.92
		c-0.34,0.13,76.47,3.44,146.18,50.92C273.83,493.79,307.2,563.06,307.18,562.69z"/>
	<path class="st3" d="M323.9,622.71c1.01,1.65-36.7-68.63-122.98-94.04c-86.11-25.97-156.15,12.21-154.4,11.38
		c-0.27,0.21,71.55-18.1,149.12,6.32C273.92,568.39,324.02,623.04,323.9,622.71z"/>
</g>
</svg>
