<?xml version="1.0" encoding="utf-8"?>
<!-- Generator: Adobe Illustrator 26.0.1, SVG Export Plug-In . SVG Version: 6.00 Build 0)  -->
<svg version="1.1" id="Layer_1" xmlns="http://www.w3.org/2000/svg" xmlns:xlink="http://www.w3.org/1999/xlink" x="0px" y="0px"
	 viewBox="0 0 501.73 668.57" style="enable-background:new 0 0 501.73 668.57;" xml:space="preserve">
<style type="text/css">
	.st0{fill:url(#SVGID_1_);}
	.st1{fill:url(#SVGID_00000141439894016816967310000004986213716179803556_);}
	.st2{fill:url(#SVGID_00000116918261738787154250000015784050651947082662_);}
	.st3{fill:url(#SVGID_00000021102951001647207140000002266004096461639609_);}
	.st4{fill:url(#SVGID_00000152955050292827230350000014907263287200047031_);}
	.st5{fill:url(#SVGID_00000168832626086551247700000010121647358280599468_);}
	.st6{fill:url(#SVGID_00000176736025888895456680000017029452090026182834_);}
	.st7{fill:url(#SVGID_00000004523719142255105320000010962630555619685509_);}
	.st8{fill:url(#SVGID_00000071533130087553273620000017244692262980971164_);}
	.st9{fill:url(#SVGID_00000048463989026581404700000018220074201213128350_);}
	.st10{fill:url(#SVGID_00000164482984091928008370000013373223909458405819_);}
</style>
<g>
	
		<linearGradient id="SVGID_1_" gradientUnits="userSpaceOnUse" x1="281.3412" y1="365.3367" x2="413.9595" y2="365.3367" gradientTransform="matrix(0.9994 0.0338 -0.0338 0.9994 -45.3976 -51.0561)">
		<stop  offset="0" style="stop-color:#89AB5B"/>
		<stop  offset="1" style="stop-color:#4A883F"/>
	</linearGradient>
	<path class="st0" d="M248.41,286.73c-11.54,38.39-22.07,77.29-26.5,117.13c-8.98,80.74,7.36,161.94,28.84,240.48
		c20.85-22.7,33.85-52.4,44.64-81.66c64.9-175.99,75.1-366.83,57.83-554.58C312.04,98.48,276.99,191.63,248.41,286.73z"/>
	
		<linearGradient id="SVGID_00000082345133188216372170000005488223236694649216_" gradientUnits="userSpaceOnUse" x1="71.2325" y1="326.3916" x2="172.8237" y2="326.3916" gradientTransform="matrix(0.999 -0.0445 0.0445 0.999 57.381 57.0542)">
		<stop  offset="0" style="stop-color:#89AB5B"/>
		<stop  offset="1" style="stop-color:#4A883F"/>
	</linearGradient>
	<path style="fill:url(#SVGID_00000082345133188216372170000005488223236694649216_);" d="M246.77,445.77
		c-4.91-72.12-10.03-144.81-29.39-214.45c-12.64-45.47-31.17-88.97-51.09-131.83c-5.49,70.71-23.9,140.61-25.34,211.68
		c-1.42,70.02,13.77,139.67,38,205.38c17.63,47.79,39.99,93.66,64.49,138.37c4.09-29.5,6.92-59.13,7.7-88.93
		C252.18,525.88,249.49,485.79,246.77,445.77z"/>
	
		<linearGradient id="SVGID_00000043416723781136874640000012745249779990633856_" gradientUnits="userSpaceOnUse" x1="1108.7197" y1="728.483" x2="1192.3976" y2="728.483" gradientTransform="matrix(0.9134 0.407 -0.407 0.9134 -387.2716 -776.3712)">
		<stop  offset="0" style="stop-color:#89AB5B"/>
		<stop  offset="1" style="stop-color:#4A883F"/>
	</linearGradient>
	<path style="fill:url(#SVGID_00000043416723781136874640000012745249779990633856_);" d="M501.73,60.69
		c-17.18,80.2-36.75,161.04-66.77,241.27c-21.48,57.41-47.89,113.33-74.18,168.98c-22.53,47.68-45.22,95.66-71.88,140.09
		c-10.96,18.27-22.55,35.85-34.64,52.55c-1.12-6.17-1.52-13.03-1.72-19.98c-2.75-96.65,33.66-216,85.16-321.38
		C384.15,227.18,442.08,141.57,501.73,60.69z"/>
	
		<linearGradient id="SVGID_00000147186720691025763220000016120549513711073972_" gradientUnits="userSpaceOnUse" x1="1878.177" y1="344.7951" x2="1966.4974" y2="344.7951" gradientTransform="matrix(-0.5555 0.8315 0.8315 0.5555 886.5146 -1251.5881)">
		<stop  offset="0" style="stop-color:#89AB5B"/>
		<stop  offset="1" style="stop-color:#4A883F"/>
	</linearGradient>
	<path style="fill:url(#SVGID_00000147186720691025763220000016120549513711073972_);" d="M78.62,472.04
		c39.54,14.03,82.55,57.11,100.16,86.87c1.26,2.14,2.45,4.29,3.29,6.37c-6.84-2.75-13.71-5.85-20.51-9.29
		c-16.54-8.35-32.56-18.54-48.48-28.66c-18.57-11.82-15.92-16.39-36.57-23.76c-22.51-8.03-15.15,44.82-0.23,68.47
		C48.42,539.64,27.47,453.9,78.62,472.04z"/>
	<g>
		
			<linearGradient id="SVGID_00000168088428363294964830000010687764736531368083_" gradientUnits="userSpaceOnUse" x1="236.8896" y1="344.1447" x2="105.3435" y2="373.611">
			<stop  offset="0" style="stop-color:#89AB5B"/>
			<stop  offset="1" style="stop-color:#4A883F"/>
		</linearGradient>
		<path style="fill:url(#SVGID_00000168088428363294964830000010687764736531368083_);" d="M239.39,381.98
			c12.92-120.01,19.04-240.61,24.48-361.2c-48.36,102.84-81.18,214.14-84.48,327.69c-3.12,107.52,21.46,217.25,78.15,308.37
			C249.87,592.99,232.5,445.92,239.39,381.98z"/>
		
			<linearGradient id="SVGID_00000104686543933423915390000005896638314286376116_" gradientUnits="userSpaceOnUse" x1="179.1245" y1="338.7273" x2="289.4182" y2="338.7273">
			<stop  offset="0" style="stop-color:#89AB5B"/>
			<stop  offset="1" style="stop-color:#4A883F"/>
		</linearGradient>
		<path style="fill:url(#SVGID_00000104686543933423915390000005896638314286376116_);" d="M263.95,20.61
			c-0.03,0.05-0.05,0.11-0.08,0.17c-5.44,120.59-11.56,241.19-24.48,361.2c-6.88,63.94,10.48,211.01,18.15,274.87
			c2.81-9.71,4.16-20.13,5.33-30.15c13.11-113.06,25.74-226.43,26.52-340.25C289.98,197.27,283.17,107.55,263.95,20.61z"/>
	</g>
	<g>
		
			<linearGradient id="SVGID_00000049222545620185257190000011931045075039253947_" gradientUnits="userSpaceOnUse" x1="104.4416" y1="694.6803" x2="271.7182" y2="694.6803" gradientTransform="matrix(0.5796 0.2054 -0.334 0.9426 519.4335 -346.8959)">
			<stop  offset="0" style="stop-color:#89AB5B"/>
			<stop  offset="1" style="stop-color:#4A883F"/>
		</linearGradient>
		<path style="fill:url(#SVGID_00000049222545620185257190000011931045075039253947_);" d="M385.85,308.33
			c23.76-103.46,40.23-206.83,54.83-309.85c0,0-173.62,528.81-175,665.47C319.67,551.73,357.98,429.67,385.85,308.33z"/>
		
			<linearGradient id="SVGID_00000080893234071346191800000011235853468941451710_" gradientUnits="userSpaceOnUse" x1="5.755" y1="694.6803" x2="173.0271" y2="694.6803" gradientTransform="matrix(0.5796 0.2054 -0.334 0.9426 519.4335 -346.8959)">
			<stop  offset="0" style="stop-color:#89AB5B"/>
			<stop  offset="1" style="stop-color:#4A883F"/>
		</linearGradient>
		<path style="fill:url(#SVGID_00000080893234071346191800000011235853468941451710_);" d="M267.3,404.45
			c-16.29,91.02-9.23,176.55-1.62,259.5c1.38-136.66,175-665.47,175-665.47c-65.26,106.31-125.32,220.63-159.13,343.9
			C275.89,363,271.01,383.76,267.3,404.45z"/>
	</g>
	
		<linearGradient id="SVGID_00000156545480626048484700000008825820349986883505_" gradientUnits="userSpaceOnUse" x1="-957.3456" y1="393.1524" x2="-728.0443" y2="393.1524" gradientTransform="matrix(0.5823 -0.1976 0.3214 0.9469 452.5439 -60.7674)">
		<stop  offset="0" style="stop-color:#89AB5B"/>
		<stop  offset="1" style="stop-color:#4A883F"/>
	</linearGradient>
	<path style="fill:url(#SVGID_00000156545480626048484700000008825820349986883505_);" d="M127.12,396.32
		c-9.05-19.12-66.56-70.74-76.44-52.27c-17.3,32.36-33.47,65.03-49.23,97.76c51.75-44.71,65.02-59.97,92.32,4.58
		c4.56,10.8,9.51,21.39,14.94,31.56c23.89,44.71,55.96,79.13,87.4,112.26C181.26,523.57,156.32,458.01,127.12,396.32z"/>
	
		<linearGradient id="SVGID_00000164511670296366801100000001318906800972639887_" gradientUnits="userSpaceOnUse" x1="461.1369" y1="764.2377" x2="607.0525" y2="764.2377" gradientTransform="matrix(-0.5538 -0.2672 -0.4345 0.9007 998.1371 -27.3885)">
		<stop  offset="0" style="stop-color:#89AB5B"/>
		<stop  offset="1" style="stop-color:#4A883F"/>
	</linearGradient>
	<path style="fill:url(#SVGID_00000164511670296366801100000001318906800972639887_);" d="M352.05,463.62
		c7.2-11.37,47.53-39.51,52.34-27.08c8.42,21.78,16.09,43.67,23.5,65.56c-29.22-32.26-36.41-42.93-58.66-4.27
		c-3.72,6.46-7.67,12.77-11.88,18.77c-18.56,26.39-41.48,45.64-63.91,64.12C307.99,539.79,328.83,500.32,352.05,463.62z"/>
	
		<linearGradient id="SVGID_00000090991296466243681260000007591422601636703903_" gradientUnits="userSpaceOnUse" x1="-330.6067" y1="-3.1636" x2="-263.3766" y2="-3.1636" gradientTransform="matrix(0.9588 -0.284 0.284 0.9588 429.3248 273.143)">
		<stop  offset="0" style="stop-color:#89AB5B"/>
		<stop  offset="1" style="stop-color:#4A883F"/>
	</linearGradient>
	<path style="fill:url(#SVGID_00000090991296466243681260000007591422601636703903_);" d="M158.16,288.01
		c-23.91-69.49-56.62-135.58-90.02-201.04c-6.87-13.46-13.78-26.92-20.72-40.34c0.29,2.5,0.58,5,0.87,7.5
		c6.33,54.74,12.67,109.56,23.76,163.54c19.66,95.66,54.02,187.6,89.02,278.78c21.86,56.93,44.14,113.97,73.22,167.51
		c-2.92-32.73-8.34-65.26-13.75-97.7C204.9,472.38,189.12,378,158.16,288.01z"/>
</g>
</svg>
